<svg width="22" height="22" viewBox="0 0 22 22" fill="none" xmlns="http://www.w3.org/2000/svg">
<path d="M5.75 16.6V5.4C5.75 5.26076 5.80531 5.12723 5.90377 5.02877C6.00223 4.93031 6.13576 4.875 6.275 4.875H8.725C8.86424 4.875 8.99777 4.93031 9.09623 5.02877C9.19469 5.12723 9.25 5.26076 9.25 5.4V16.6C9.25 16.7392 9.19469 16.8728 9.09623 16.9712C8.99777 17.0697 8.86424 17.125 8.725 17.125H6.275C6.13576 17.125 6.00223 17.0697 5.90377 16.9712C5.80531 16.8728 5.75 16.7392 5.75 16.6ZM12.75 16.6V5.4C12.75 5.26076 12.8053 5.12723 12.9038 5.02877C13.0022 4.93031 13.1358 4.875 13.275 4.875H15.725C15.8642 4.875 15.9978 4.93031 16.0962 5.02877C16.1947 5.12723 16.25 5.26076 16.25 5.4V16.6C16.25 16.7392 16.1947 16.8728 16.0962 16.9712C15.9978 17.0697 15.8642 17.125 15.725 17.125H13.275C13.1358 17.125 13.0022 17.0697 12.9038 16.9712C12.8053 16.8728 12.75 16.7392 12.75 16.6Z" fill="white" stroke="white" stroke-width="1.3125"/>
</svg>
