<svg width="20" height="21" viewBox="0 0 20 21" fill="none" xmlns="http://www.w3.org/2000/svg">
<path d="M13.937 5.17986C14.1562 5.32918 14.3071 5.55945 14.3565 5.82004C14.4059 6.08062 14.3498 6.35016 14.2005 6.56936C14.0512 6.78856 13.8209 6.93947 13.5603 6.98888C13.2998 7.0383 13.0302 6.98217 12.811 6.83286C11.8878 6.20524 10.7811 5.90465 9.6672 5.97895C8.55333 6.05326 7.49635 6.49819 6.66467 7.24288C5.83299 7.98756 5.27445 8.98915 5.07802 10.0881C4.88159 11.187 5.05858 12.3201 5.58078 13.3068C6.10299 14.2934 6.94038 15.077 7.95954 15.5326C8.9787 15.9881 10.121 16.0895 11.2045 15.8206C12.288 15.5517 13.2503 14.9279 13.9381 14.0486C14.626 13.1694 14.9998 12.0852 15 10.9689C15 10.7036 15.1054 10.4493 15.2929 10.2618C15.4804 10.0742 15.7348 9.96886 16 9.96886C16.2652 9.96886 16.5196 10.0742 16.7071 10.2618C16.8947 10.4493 17 10.7036 17 10.9689C16.9998 12.5318 16.4764 14.0498 15.5134 15.2808C14.5504 16.5119 13.203 17.3852 11.686 17.7617C10.1691 18.1382 8.56974 17.9961 7.14287 17.3581C5.716 16.7202 4.54369 15.623 3.81271 14.2415C3.08174 12.86 2.83416 11.2736 3.10942 9.73501C3.38467 8.19645 4.16694 6.79427 5.33156 5.75188C6.49619 4.70949 7.97618 4.08686 9.53573 3.98319C11.0953 3.87953 12.6447 4.30079 13.937 5.17986Z" fill="#FF7B00"/>
<path d="M13.5392 13.4748C13.4285 13.5455 13.305 13.5938 13.1757 13.6169C13.0464 13.6399 12.9138 13.6373 12.7856 13.6091C12.6573 13.5809 12.5358 13.5278 12.4281 13.4526C12.3203 13.3775 12.2284 13.2819 12.1577 13.1713C12.0869 13.0606 12.0386 12.9371 12.0155 12.8078C11.9925 12.6785 11.9951 12.5459 12.0233 12.4177C12.0515 12.2894 12.1047 12.1679 12.1798 12.0602C12.2549 11.9524 12.3505 11.8605 12.4612 11.7898L15.9432 9.56276C16.1665 9.42451 16.4354 9.37972 16.6915 9.43806C16.9476 9.4964 17.1705 9.65319 17.312 9.87453C17.4535 10.0959 17.5022 10.364 17.4476 10.621C17.393 10.8779 17.2394 11.1031 17.0202 11.2478L13.5392 13.4748Z" fill="#FF7B00"/>
<path d="M18.903 13.3788C19.0051 13.62 19.0085 13.8916 18.9125 14.1352C18.8165 14.3788 18.6288 14.5751 18.3897 14.6818C18.1506 14.7886 17.8791 14.7972 17.6337 14.706C17.3882 14.6148 17.1883 14.4309 17.077 14.1939L15.569 10.8139C15.5125 10.6935 15.4805 10.5631 15.475 10.4303C15.4695 10.2974 15.4905 10.1648 15.5368 10.0402C15.5831 9.9156 15.6538 9.80147 15.7448 9.70451C15.8358 9.60754 15.9451 9.52969 16.0665 9.4755C16.188 9.42131 16.3189 9.39188 16.4519 9.38892C16.5848 9.38596 16.717 9.40954 16.8407 9.45827C16.9644 9.507 17.0771 9.57991 17.1723 9.67273C17.2675 9.76555 17.3432 9.87642 17.395 9.99885L18.903 13.3788Z" fill="#FF7B00"/>
</svg>
