<svg width="326" height="167" viewBox="0 0 326 167" fill="none" xmlns="http://www.w3.org/2000/svg">
<path d="M324.651 123.96C321.15 136.453 309.951 147.651 284.102 153.334C274.582 155.42 264.751 155.372 249.883 147.387C246.646 145.661 241.73 141.536 238.397 136.621C234.297 141.992 221.66 144.582 207.416 142.496C198.832 141.225 191.302 138.515 186.171 135.182C172.814 150.505 170.272 153.622 152.72 159.665C134.927 165.827 110.036 165.803 98.934 162.998C76.8492 157.483 73.7079 151.848 73.7079 151.848C73.7079 151.848 54.0929 163.094 46.2517 164.724C38.4105 166.355 25.9173 168.945 14.5032 163.765C9.6114 161.559 6.27829 157.315 4.0722 153.214C1.02683 147.459 -0.172136 140.961 0.0196978 134.439C0.25949 125.398 2.10588 110.555 10.6905 99.8844L11.3379 99.7405C10.9542 101.899 10.6425 107.942 15.1026 119.284C22.9199 138.947 35.3651 138.875 54.8123 135.709C92.5556 129.547 88.9587 96.935 88.9587 96.935C88.9587 96.935 117.974 117.365 160.393 100.532C166.915 97.9182 174.013 94.4172 180.104 90.1729C181.231 93.7218 183.005 96.959 185.451 99.7886C192.837 108.397 196.554 115.375 214.37 112.929C227.727 111.107 236.671 99.5488 237.654 96.7911C238.637 94.0096 239.956 97.2947 240.723 106.551C241.515 115.807 248.229 118.804 254.248 122.113C258.852 124.631 271.92 129.211 294.94 122.257C317.409 115.447 318.92 109.236 322.109 98.5416C322.445 97.4146 322.708 96.2875 322.876 95.0886C324.795 104.273 326.689 116.742 324.651 123.984V123.96Z" fill="#3B5162"/>
<path d="M322.9 95.0888C322.733 96.2638 322.469 97.3908 322.133 98.5418C318.944 109.213 317.433 115.447 294.965 122.257C271.944 129.211 258.876 124.631 254.272 122.113C248.253 118.804 241.563 115.807 240.747 106.551C239.98 97.2949 238.661 94.0098 237.678 96.7914C236.695 99.549 227.751 111.107 214.394 112.929C196.578 115.375 192.861 108.373 185.475 99.7888C183.029 96.9592 181.255 93.746 180.128 90.1731C174.061 94.4174 166.939 97.9184 160.417 100.532C117.998 117.366 88.9828 96.9352 88.9828 96.9352C88.9828 96.9352 92.5797 129.547 54.8364 135.71C35.3892 138.851 22.944 138.947 15.1268 119.284C10.6667 107.966 10.9784 101.899 11.362 99.7408L10.7146 99.8846C22.2486 85.569 29.2506 80.2697 30.8332 79.1427C31.073 78.9748 31.1689 78.9268 31.1689 78.9268C31.1689 78.9268 40.4489 73.4836 50.1365 69.0954C51.6712 68.4 52.99 67.8484 54.0931 67.4168C59.3685 65.4265 60.3516 66.2419 60.4955 66.4337C60.4715 66.122 60.2557 63.4602 61.2149 59.0001C61.2868 58.6643 61.3588 58.3287 61.4547 57.969C61.5266 57.5853 61.6225 57.2497 61.7424 56.842C61.8383 56.4344 61.9822 56.0027 62.1261 55.571C62.27 55.1154 62.4138 54.6119 62.5817 54.1323C62.6776 53.8206 62.7975 53.5329 62.9174 53.2211C63.0853 52.7895 63.2291 52.3579 63.421 51.9023C63.7807 51.0151 64.1643 50.0798 64.6199 49.0966C64.8358 48.617 65.0756 48.1135 65.3153 47.6339C65.7949 46.6268 66.3465 45.5717 66.9699 44.5166C67.4975 43.5575 68.0969 42.5503 68.7444 41.4952C69.128 40.8478 69.5597 40.1763 70.0393 39.5049C70.4229 38.9294 70.8066 38.33 71.2382 37.7545C71.6459 37.155 72.0775 36.5795 72.5091 35.956C79.0315 27.1317 121.427 74.3228 131.786 67.8724C142.025 61.4939 121.139 -2.41073 137.133 1.21014C137.301 1.23411 137.469 1.28204 137.613 1.33C138.692 1.64173 139.675 1.9535 140.658 2.26523C141.617 2.57696 142.528 2.8887 143.416 3.17645C143.847 3.34431 144.303 3.46421 144.711 3.63206C155.885 7.73251 159.41 11.3293 163.055 14.3267C163.199 14.4466 163.366 14.5666 163.558 14.6865C167.419 17.7318 167.803 15.9573 167.803 15.9573C167.803 15.9573 167.875 15.9573 168.018 15.9573C171.615 15.7415 219.118 12.7922 235.592 19.9859C237.27 20.7293 238.661 21.5685 239.596 22.5277C241.563 24.518 243.361 26.4123 244.992 28.3307C245.136 28.3307 245.28 28.3307 245.399 28.3307C245.591 28.3307 245.783 28.3307 245.951 28.3307C246.646 28.3546 247.342 28.4265 248.013 28.5464C261.49 30.6086 271.393 45.9553 271.393 45.9553C271.393 45.9553 271.801 44.5406 281.32 45.26C290.816 45.9554 302.782 52.8134 308.201 59.9353C313.596 67.0571 320.071 83.5788 320.071 83.5788C320.071 83.5788 321.51 88.4945 322.9 95.1128V95.0888Z" fill="#3B5162"/>
<path d="M322.9 95.089C322.733 96.264 322.469 97.391 322.133 98.542C318.944 109.213 317.433 115.447 294.965 122.258C271.944 129.212 258.876 124.631 254.272 122.114C248.253 118.805 241.563 115.807 240.748 106.551C239.98 97.2952 238.661 94.01 237.678 96.7916C236.695 99.5492 235.136 108.302 221.78 110.124C203.963 112.57 191.542 107.51 185.355 102.427C182.454 100.053 181.255 93.7462 180.128 90.1733C174.061 94.4176 166.939 97.9186 160.417 100.532C117.998 117.366 88.9829 96.9355 88.9829 96.9355C88.9829 96.9355 92.5797 129.547 54.8364 135.71C35.3892 138.851 22.944 138.947 15.1268 119.284C10.6667 107.966 10.9784 101.899 11.362 99.741L10.7146 99.8849C21.1456 85.2815 29.1307 80.126 30.8332 79.1429C31.073 78.975 31.1689 78.927 31.1689 78.927C31.1689 78.927 40.4489 73.4838 50.1365 69.0956C51.6712 68.4002 52.99 67.8486 54.0931 67.417C57.7619 66.0262 60.3996 62.8369 61.2149 59.0003C61.2868 58.6646 61.3588 58.3289 61.4547 57.9692C61.5266 57.5855 61.6225 57.2499 61.7424 56.8422C61.8383 56.4346 61.9822 56.0029 62.1261 55.5713C62.27 55.1156 62.4138 54.6121 62.5817 54.1326C62.6776 53.8208 62.7975 53.5331 62.9174 53.2213C63.0853 52.7897 63.2292 52.3581 63.421 51.9025C63.7807 51.0153 64.1643 50.08 64.6199 49.0968C64.8358 48.6172 65.0756 48.1137 65.3153 47.6341C65.7949 46.627 66.3465 45.5719 66.9699 44.5169C67.4975 43.5577 68.0969 42.5505 68.7444 41.4955C69.128 40.848 69.5597 40.1766 70.0393 39.5051C70.4229 38.9296 70.8066 38.3302 71.2382 37.7547C71.6459 37.1552 72.0775 36.5797 72.5091 35.9563C79.0315 27.1319 86.3691 17.7081 96.8241 11.4255C104.545 6.79754 120.372 -3.51355 137.133 1.21036C137.301 1.23434 137.469 1.28227 137.613 1.33022C138.692 1.64195 139.675 1.95372 140.658 2.26545C141.641 2.57718 142.528 2.88892 143.416 3.17667C143.847 3.34453 144.303 3.46443 144.711 3.63228C155.957 7.6608 159.578 11.1377 163.055 14.3269C163.199 14.4468 163.366 14.5668 163.558 14.6867C165.093 15.6458 167.803 15.9575 167.803 15.9575C167.803 15.9575 167.875 15.9575 168.018 15.9575C171.567 15.5259 202.549 -0.252334 235.592 19.9861C237.031 20.8734 238.469 21.5927 239.596 22.5279C241.707 24.2784 243.601 26.0289 245.399 28.3549C245.567 28.5467 245.735 28.7864 245.903 29.0022C246.598 28.8344 247.294 28.6905 248.013 28.5706C250.339 28.163 252.689 27.9472 254.991 28.0431C267.892 28.5467 277.484 42.9822 277.484 42.9822C277.484 42.9822 277.867 41.7593 286.308 42.3108C294.725 42.8623 305.324 48.6893 310.095 54.732C314.867 60.7988 320.526 74.8745 320.526 74.8745C320.526 74.8745 324.315 85.3055 322.852 95.137L322.9 95.089Z" fill="url(#paint0_linear_333_240)"/>
<defs>
<linearGradient id="paint0_linear_333_240" x1="148.591" y1="132.39" x2="220.861" y2="4.93364" gradientUnits="userSpaceOnUse">
<stop stop-color="#52798D"/>
<stop offset="0.31" stop-color="#557D8D"/>
<stop offset="0.61" stop-color="#5D898E"/>
</linearGradient>
</defs>
</svg>
