<svg width="267" height="164" viewBox="0 0 267 164" fill="none" xmlns="http://www.w3.org/2000/svg">
<path d="M188.725 24.5993C188.725 24.5993 249.488 32.2487 257.905 44.8378C262.437 51.6239 265.938 57.5467 266.561 65.1721C267.089 71.6945 265.53 79.4638 260.71 90.0866C257.665 96.7768 254.764 102.052 252.198 106.177C245.891 116.248 235.053 123.058 223.183 122.842C223.111 122.842 223.015 122.842 222.943 122.842C211.913 122.555 204.623 121.236 204.623 121.236C204.623 121.236 190.787 139.796 184.528 144.639C167.839 157.588 164.937 160.178 146.282 162.792C127.626 165.405 103.191 160.61 92.8558 155.742C72.2576 146.054 70.2433 139.94 70.2433 139.94C70.2433 139.94 48.8539 147.205 40.8208 147.301C32.7878 147.397 20.0548 147.517 9.83963 140.251C5.45143 137.134 3.00554 132.338 1.63873 127.878C-0.255635 121.667 -0.159717 115.025 1.25506 108.695C3.22136 99.8701 7.87333 85.6505 18.3762 76.8501C34.4663 63.3498 42.4754 60.2085 42.4754 60.2085C42.4754 60.2085 52.6426 56.6596 63.0016 54.1897C73.3606 51.7199 73.6964 53.5902 73.6964 53.5902C73.6964 53.5902 74.5356 41.2888 91.3211 25.9421C99.4261 18.5325 131.966 72.9654 143.356 68.6491C154.746 64.3329 146.21 -3.7441 161.868 4.4568C177.526 12.6577 180.764 17.7652 184.337 22.0815C187.909 26.3977 188.677 24.5993 188.677 24.5993H188.725Z" fill="#3B5162"/>
<path d="M266.561 65.148C266.561 65.148 259.319 77.0417 234.669 77.1376C219.514 77.2095 203.688 70.5433 203.688 70.5433C213.063 91.4532 185.775 102.364 165.201 106.224C120.336 114.593 95.781 88.9833 95.781 88.9833C95.781 88.9833 93.0474 121.691 54.8245 120.468C35.1375 119.821 22.9081 117.519 18.9995 96.7286C16.7934 84.7629 18.2561 78.8641 19.0474 76.8258H18.376C33.1472 62.8939 42.4751 60.2083 42.4751 60.2083C42.4751 60.2083 52.6423 56.6353 62.9774 54.1894C64.608 53.8058 66.0228 53.518 67.1738 53.3022C71.0584 52.6548 74.2476 50.0171 75.8063 46.3962C77.9884 41.3366 82.4246 34.0708 91.3209 25.9178C99.4259 18.5082 108.418 10.6671 119.88 6.49469C128.417 3.40137 146.209 -3.76839 161.868 4.43251C177.526 12.6334 181.027 17.5491 184.336 22.0812C185.439 23.5679 188.677 24.599 188.677 24.599C188.677 24.599 244.836 28.8193 257.881 44.8135C261.789 49.6093 264.667 54.1894 266.537 65.124L266.561 65.148Z" fill="url(#paint0_linear_333_250)"/>
<defs>
<linearGradient id="paint0_linear_333_250" x1="144.527" y1="115.237" x2="137.55" y2="1.06562" gradientUnits="userSpaceOnUse">
<stop offset="0.07" stop-color="#4B6D8B"/>
<stop offset="0.32" stop-color="#4D718B"/>
<stop offset="0.61" stop-color="#557F8E"/>
</linearGradient>
</defs>
</svg>
