<svg width="198" height="162" viewBox="0 0 198 162" fill="none" xmlns="http://www.w3.org/2000/svg">
<path d="M2.63554 41.7861C-5.75719 65.3817 6.56812 91.2553 30.0438 99.6721C34.2881 101.207 38.5804 102.046 42.9206 102.214C43.9757 113.7 48.6277 125.618 56.7327 136.097C64.5739 146.216 74.5253 153.314 84.9083 157.03L85.0522 157.078C86.1552 157.63 87.2823 158.109 88.5052 158.541C112.101 166.934 137.974 154.608 146.391 131.133C149.029 123.699 149.604 116.05 148.453 108.76C148.405 108.664 148.453 108.52 148.453 108.425C148.741 108.544 149.053 108.592 149.269 108.688H149.341C161.354 112.117 174.039 110.175 183.727 102.334C198.906 90.1523 201.639 67.3961 191.328 48.7882C189.794 43.5847 187.18 38.573 183.607 34.0649C168.38 15.0973 140.372 12.0759 120.254 26.8951C112.748 19.3177 103.181 12.6993 92.1261 8.04731C56.8526 -6.8438 19.1572 2.79586 7.88701 29.4848C7.23957 31.0434 6.61607 32.674 6.28036 34.2806C4.81763 36.5586 3.64265 39.1484 2.68348 41.8101L2.63554 41.7861Z" fill="#3B5162"/>
<path d="M15.824 17.6625C10.045 31.3307 24.8162 50.9937 49.7067 64.3502C45.798 78.3061 60.7611 96.914 84.3566 106.865C109.151 117.344 133.97 114.371 139.941 100.223C141.523 96.4823 141.595 92.3819 140.396 88.1376C142.147 89.2886 143.993 90.2477 145.959 91.063C163.992 98.6884 184.734 90.2477 192.335 72.2393C197.011 61.1849 195.668 49.0034 189.721 39.5076C189.649 39.3157 189.554 39.1001 189.41 39.0521C185.237 30.4915 177.372 22.9379 166.965 18.5257C150.348 11.4998 132.435 14.6411 122.939 25.3119C115.554 19.0293 106.058 13.2024 95.2912 8.6463C70.4967 -1.83263 46.1338 -2.6719 34.0482 5.50503L33.9523 5.55303C24.984 7.32749 18.4617 11.3799 15.824 17.6385V17.6625ZM125.481 67.4675C125.481 67.4675 125.625 67.5154 125.673 67.6353L125.577 67.8511C125.577 67.8511 125.505 67.6593 125.481 67.4915V67.4675Z" fill="url(#paint0_linear_333_244)"/>
<defs>
<linearGradient id="paint0_linear_333_244" x1="82.6214" y1="-15.0571" x2="132.842" y2="108.666" gradientUnits="userSpaceOnUse">
<stop offset="0.2" stop-color="#5D898E"/>
<stop offset="1" stop-color="#51778D"/>
</linearGradient>
</defs>
</svg>
