<svg width="172" height="132" viewBox="0 0 172 132" fill="none" xmlns="http://www.w3.org/2000/svg">
<path d="M168.302 73.7085C166.335 90.8776 158.662 104.953 149.238 110.589C142.476 118.885 129.743 126.151 114.277 129.58C96.8916 133.513 80.6336 131.69 71.2098 125.719C71.1378 125.719 71.0659 125.648 70.994 125.576H70.8501C67.9726 124.52 65.143 123.178 62.4813 121.499C48.4055 112.699 41.0199 97.1602 41.9311 81.6696C34.8333 81.5976 26.8722 79.1997 19.4866 74.5717C5.77045 66.059 -1.75906 52.4868 0.351112 41.7681C-1.1356 31.0014 8.31222 16.8535 24.0666 7.78938C34.6894 1.67468 45.9596 -0.867011 54.7361 0.260013C64.2318 0.188076 75.9817 3.641 87.18 10.6669C93.2227 14.4077 98.4502 18.748 102.599 23.328C116.243 15.295 133.772 14.9592 148.135 23.8795C161.636 32.3202 168.973 46.8995 168.757 61.7427V61.8867C168.901 65.6754 168.829 69.632 168.326 73.7085H168.302Z" fill="#3B5162"/>
<path d="M165.113 76.3226C164.897 76.5384 164.753 76.7542 164.489 76.9461C163.218 78.4807 161.492 79.8716 159.573 81.1904C159.501 81.2384 159.454 81.2623 159.382 81.3103C148.687 88.552 128.712 92.6525 106.028 91.1657C72.8165 88.9117 46.7031 75.6752 47.6143 61.5514C47.8302 58.1704 49.5806 55.077 52.602 52.3433H52.3862C30.9967 50.9286 14.3791 38.0518 15.3623 23.6403C16.2735 9.20476 34.4258 -1.27414 55.8872 0.140635C62.6493 0.572261 68.9798 2.17874 74.3992 4.6486C79.3149 5.99143 84.3985 8.17357 89.2423 11.2669C94.23 14.4322 98.5223 18.2449 101.831 22.2494C113.653 8.46136 137.369 9.37259 154.826 24.2157C172.354 39.0589 176.91 62.4387 165.089 76.3706L165.113 76.3226Z" fill="url(#paint0_linear_333_287)"/>
<defs>
<linearGradient id="paint0_linear_333_287" x1="15.3383" y1="45.7251" x2="171.683" y2="45.7251" gradientUnits="userSpaceOnUse">
<stop offset="0.07" stop-color="#4B6D8B"/>
<stop offset="0.32" stop-color="#4D718B"/>
<stop offset="0.61" stop-color="#557F8E"/>
</linearGradient>
</defs>
</svg>
