<svg width="201" height="116" viewBox="0 0 201 116" fill="none" xmlns="http://www.w3.org/2000/svg">
<path d="M200.227 53.6654C200.227 68.8203 186.942 81.0257 170.516 81.0257C167.495 81.0257 164.665 80.642 161.908 79.8507C159.558 84.2389 156.249 88.6511 152.148 92.7515C148.527 96.3724 144.619 99.2979 140.71 101.744C135.723 105.652 128.792 108.985 120.688 111.311C120.4 111.503 119.992 111.599 119.704 111.599C114.908 113.062 109.729 114.141 104.262 114.717C104.07 114.813 103.782 114.812 103.47 114.812C98.8664 115.388 93.9986 115.7 89.0109 115.7C76.6137 115.7 64.9837 113.949 55.392 110.712C55.1042 110.712 54.8165 110.616 54.5048 110.52C53.138 110.232 51.7712 109.825 50.4043 109.345C41.508 106.516 33.7867 102.103 27.9358 96.9479C23.9313 94.3102 19.8308 90.5934 16.1141 86.1092C11.8218 80.9297 8.58456 75.5584 6.73816 70.5707C2.54179 63.6407 0 54.7445 0 45.1768C0 34.4341 3.11724 24.7464 8.10492 17.5287C8.80032 16.5455 9.47175 15.6823 10.359 14.891C14.4594 9.90333 19.7349 6.49824 25.7058 5.41918C25.7058 5.41918 25.8016 5.32317 25.8976 5.32317C32.2521 2.20587 47.287 0.0478516 64.7919 0.0478516C66.0628 0.0478516 67.4296 0.0477989 68.7005 0.143716C70.7627 0.143716 72.801 0.143663 74.7673 0.23958H75.3427C76.0381 0.335497 76.6137 0.335538 77.1892 0.431455C77.9805 0.431455 78.6519 0.527319 79.4432 0.527319C81.0018 0.719153 82.4646 0.815099 83.9274 1.00693C84.311 1.00693 84.6228 1.00703 84.9105 1.10294C87.7401 1.29478 90.5696 1.58246 93.2073 2.08603C97.6914 2.78143 101.816 3.64471 105.317 4.8197C105.796 4.91561 106.3 5.10738 106.78 5.2033C106.875 5.2033 107.067 5.29931 107.259 5.29931C107.643 5.29931 108.146 5.39522 108.626 5.58705C111.36 6.28245 114.189 7.14568 117.234 8.41658C119.489 9.2079 121.839 10.263 124.165 11.438C125.244 11.8217 126.227 12.3252 127.09 12.9007C130.015 14.3634 132.845 15.922 135.794 17.7924C136.586 18.272 137.257 18.7756 138.048 19.1592C142.245 21.8929 145.962 24.8184 149.391 27.7678C149.87 28.1515 150.278 28.4633 150.662 28.8469C152.028 28.1515 153.395 27.672 154.954 27.1924C155.146 27.0965 155.338 27.0964 155.529 27.0964C160.133 30.5254 163.251 33.9305 164.234 36.7601C168.047 42.3232 169.126 47.8863 166.584 51.795C163.946 55.8954 157.879 57.1663 150.662 55.7036C155.05 57.0704 160.133 57.8618 165.601 57.8618C182.122 57.8618 195.599 50.5242 195.599 41.436C195.599 40.357 195.407 39.3737 195.119 38.3186C198.236 42.6109 200.203 47.8864 200.203 53.6654H200.227Z" fill="#3B5162"/>
<path d="M195.622 41.4601C195.622 50.5482 182.146 57.8859 165.624 57.8859C160.157 57.8859 155.074 57.0946 150.685 55.7277C148.623 55.3441 146.393 54.6487 144.043 53.6656C141.501 52.6824 138.864 51.3156 136.322 49.6611C133.684 48.0065 131.334 46.2319 129.392 44.2896C125.195 51.5313 118.361 58.7491 109.753 64.72C106.228 67.1658 102.727 69.2041 99.106 70.8826C98.9141 70.9786 98.8182 70.9786 98.6263 71.0745C94.1422 73.2326 89.5382 74.6954 85.246 75.5586C84.071 75.7505 82.992 75.9423 81.9129 76.0382C78.5798 76.326 75.0787 76.4219 71.362 76.1341C65.6069 75.7504 59.5402 74.4796 53.3775 72.4173C30.0217 64.4083 14.5791 46.1361 16.1618 29.7103C15.9699 29.0149 15.97 28.2475 15.97 27.5521C15.97 12.3972 36.5921 0.0958643 62.1779 0.0958643C63.4488 0.0958643 64.7197 0.095958 65.9906 0.191875H66.8779C68.0528 4.09844e-05 69.2278 0 70.4987 0C72.6569 0 74.791 0.0958526 76.7573 0.383604H77.2369C78.0282 0.383604 78.6996 0.479614 79.491 0.479614C83.4955 0.575531 88.1954 1.05503 93.279 2.03818C97.0917 2.73358 101.096 3.59686 105.389 4.77185C105.868 4.86776 106.372 5.05968 106.851 5.1556C106.947 5.1556 107.139 5.25146 107.331 5.25146C107.427 5.25146 107.619 5.34732 107.715 5.34732C110.832 6.33047 113.973 7.19375 117.282 8.36873C117.666 8.46465 118.169 8.65657 118.553 8.75248C120.208 9.32798 121.766 9.92742 123.445 10.5029H123.541C136.25 15.2988 147.088 20.8619 154.522 26.2333C157.951 25.442 161.764 25.0583 165.672 25.0583C167.83 25.0583 169.965 25.1542 172.027 25.4419C172.315 25.4419 172.602 25.538 172.914 25.538C174.377 25.7298 175.935 26.0174 177.302 26.3292C179.053 26.8087 180.827 27.3124 182.386 27.8879C183.657 28.2715 184.832 28.7752 185.911 29.4466C186.295 29.5425 186.606 29.7342 186.99 29.926C191.09 32.0842 194.016 35.0097 195.191 38.2229C195.479 39.302 195.67 40.2851 195.67 41.3402L195.622 41.4601Z" fill="url(#paint0_linear_333_284)"/>
<defs>
<linearGradient id="paint0_linear_333_284" x1="15.946" y1="38.175" x2="195.622" y2="38.175" gradientUnits="userSpaceOnUse">
<stop offset="0.26" stop-color="#4B6D8B"/>
<stop offset="0.42" stop-color="#4D718B"/>
<stop offset="0.61" stop-color="#557F8E"/>
</linearGradient>
</defs>
</svg>
