<svg width="169" height="127" viewBox="0 0 169 127" fill="none" xmlns="http://www.w3.org/2000/svg">
<path d="M30.3528 32.9777C30.3528 32.9777 3.9996 38.9726 1.00219 56.1177C-1.99521 73.2629 1.79347 86.979 11.529 95.7793C21.2646 104.58 37.9542 109.591 46.1071 106.45C68.0242 98.0334 68.5997 87.4585 69.2232 84.1015C69.8466 80.7444 68.3119 87.5546 70.8057 98.1294C73.2996 108.704 78.2873 119.95 85.577 122.756C92.8906 125.562 108.669 131.844 132.313 119.95C155.956 108.057 166.507 97.8656 168.162 85.0127C169.816 72.1598 157.73 45.6867 157.73 45.6867C157.73 45.6867 148.93 30.2681 142.528 24.0095C136.125 17.7749 123.296 12.7153 113.8 13.3867C104.305 14.0581 104.089 15.5449 104.089 15.5449C104.089 15.5449 90.8284 0.365921 76.3689 1.80468C61.9094 3.24343 47.2821 16.0244 47.2821 16.0244C47.2821 16.0244 33.4461 29.2849 30.3528 33.0257V32.9777Z" fill="#3B5162"/>
<path d="M44.2129 27.294C44.2129 27.294 20.7851 32.6893 17.9796 47.3886C15.174 62.0879 18.3872 73.8137 26.9238 81.2473C35.4605 88.6808 40.1844 95.0593 57.4495 90.0476C70.3982 86.3069 77.568 73.574 78.1435 70.6725C78.719 67.795 80.4935 70.8642 82.6037 79.8804C84.7138 88.8966 91.8117 90.911 98.2381 93.3089C103.154 95.1313 116.75 97.769 138.523 87.5298C159.769 77.5305 160.344 71.176 161.951 60.1456C163.558 49.1151 156.963 36.9097 156.963 36.9097C156.963 36.9097 149.314 23.7691 143.703 18.4936C138.092 13.2182 126.773 8.99787 118.357 9.66929C109.94 10.3407 109.724 11.6116 109.724 11.6116C109.724 11.6116 98.1182 -1.26523 85.2893 0.101591C72.4604 1.46841 59.3678 12.5707 59.3678 12.5707C59.3678 12.5707 46.9705 24.0568 44.1889 27.294H44.2129Z" fill="url(#paint0_linear_333_247)"/>
<defs>
<linearGradient id="paint0_linear_333_247" x1="102.102" y1="99.4807" x2="73.5353" y2="3.10419" gradientUnits="userSpaceOnUse">
<stop offset="0.26" stop-color="#4B6D8B"/>
<stop offset="0.42" stop-color="#4D718B"/>
<stop offset="0.61" stop-color="#557F8E"/>
</linearGradient>
</defs>
</svg>
