<svg width="49" height="49" viewBox="0 0 49 49" fill="none" xmlns="http://www.w3.org/2000/svg">
<circle cx="24.5001" cy="24.5" r="24" fill="white"/>
<path d="M32.8987 37.2822C31.2654 38.8655 29.482 38.6155 27.7654 37.8655C25.9487 37.0988 24.282 37.0655 22.3654 37.8655C19.9654 38.8988 18.6987 38.5988 17.2654 37.2822C9.13204 28.8988 10.332 16.1322 19.5654 15.6655C21.8154 15.7822 23.382 16.8988 24.6987 16.9988C26.6654 16.5988 28.5487 15.4488 30.6487 15.5988C33.1654 15.7988 35.0654 16.7988 36.3154 18.5988C31.1154 21.7155 32.3487 28.5655 37.1154 30.4822C36.1654 32.9822 34.932 35.4655 32.882 37.2988L32.8987 37.2822ZM24.532 15.5655C24.282 11.8488 27.2987 8.78218 30.7654 8.48218C31.2487 12.7822 26.8654 15.9822 24.532 15.5655Z" fill="black"/>
</svg>
