<svg width="517" height="814" viewBox="0 0 517 814" fill="none" xmlns="http://www.w3.org/2000/svg">
<path d="M348.741 113.546C289.063 63.7128 202.126 63.7985 152.5 87.5705C156.942 93.2852 161.993 97.9376 167.528 101.698C220.044 137.381 316.13 92.7809 348.741 113.546Z" fill="#563D3B"/>
<path d="M406.13 210.323C399.069 180.368 386.89 156.067 371.395 136.688C374.738 166.643 380.421 229.858 376.409 243.083H388.425C391.954 229.68 399.578 217.12 406.13 210.323Z" fill="#563D3B"/>
<path d="M401.921 265.023C398.998 242.313 406.262 219.49 413.377 205.185C411.394 205.665 408.855 207.496 406.13 210.323C399.578 217.12 391.954 229.68 388.425 243.083C388.136 244.18 387.874 245.283 387.643 246.389C384.989 259.083 386.327 272.166 395.945 281.553L401.921 265.023Z" fill="#5D4F54"/>
<path d="M117.636 98.8188C117.035 103.928 116.735 114.027 120.341 113.546C126.886 103.326 138.129 94.4548 152.5 87.5705C202.126 63.7985 289.063 63.7128 348.741 113.546C356.85 120.316 364.455 128.009 371.395 136.688C386.89 156.067 399.069 180.368 406.13 210.323C408.855 207.496 411.394 205.665 413.377 205.185C414.601 202.724 415.821 200.514 416.984 198.601C418.358 196.67 419.763 194.927 421.191 193.36C416.984 113.546 252.583 -21.1004 120.843 93.7095C119.759 95.3863 118.69 97.0894 117.636 98.8188Z" fill="#F18730"/>
<path d="M414.579 362.1C421.892 356.49 435.617 341.963 432.011 328.739L430.208 323.029C360.48 395.16 221.727 387.046 167.528 371.718C166.33 372.683 165.018 373.751 163.62 374.9C163.62 377.445 174.841 385.861 180.451 389.751C206.095 404.365 308.088 415.235 392.339 374.41C399.918 370.737 407.355 366.645 414.579 362.1Z" fill="#62595F"/>
<path d="M101.407 381.636C110.423 366.007 111.205 324.051 74.6578 326.936L56.6249 342.564L43.4007 331.143C36.5882 329.04 23.0835 329.34 23.5644 347.373C7.5351 352.883 -11.9004 378.33 40.0946 414.095C66.7833 422.51 92.0897 395.962 101.407 381.636Z" fill="white"/>
<path d="M74.6578 326.936L32.2804 280.351C29.0745 278.347 21.5207 275.542 16.9524 280.351C14.7483 282.054 11.2419 287.383 14.8485 295.078L43.4007 331.143L56.6249 342.564L74.6578 326.936Z" fill="white"/>
<path d="M112.527 403.576C113.93 398.767 113.669 387.647 101.407 381.636C92.0897 395.962 66.7833 422.51 40.0946 414.095C38.3915 421.008 39.6739 435.915 58.4282 440.243C71.6523 441.345 100.986 435.554 112.527 403.576Z" fill="white"/>
<path d="M123.046 414.095L112.527 403.576C100.986 435.554 71.6523 441.345 58.4282 440.243C69.0476 473.303 105.735 525.839 167.528 471.5C169.631 447.456 175.162 397.445 180.451 389.751C174.841 385.861 163.62 377.445 163.62 374.9C149.355 386.628 126.112 406.869 123.046 414.095Z" fill="white"/>
<path fill-rule="evenodd" clip-rule="evenodd" d="M283.239 617.266L315.999 711.038L321.108 716.748C340.343 722.859 383.863 729.01 404.06 704.726L395.644 593.223C377.611 609.813 371.3 600.937 370.398 594.425C352.846 599.474 352.666 585.909 354.77 578.496C338.66 583.785 341.045 566.874 344.251 557.758C334.633 562.566 334.232 552.749 335.234 547.239C337.879 529.687 361.182 519.488 372.502 516.582V514.779C374.205 505.736 383.854 503.547 395.344 506.4C395.323 506.255 395.325 506.098 395.347 505.928C395.462 490.724 396.333 460.405 398.951 457.074C380.918 447.648 354.349 417.919 392.339 374.41C308.088 415.235 206.095 404.365 180.451 389.751C175.162 397.445 169.631 447.456 167.528 471.5C166.025 495.845 164.462 546.637 170.233 555.053C176.845 605.245 172.697 707.552 183.757 704.426C217.719 723.961 255.288 711.038 263.703 702.322C268.212 702.322 269.173 667.037 273.02 617.266H283.239ZM189.768 436.636C190.73 425.336 200.388 421.509 205.096 421.008H303.376C315.638 421.008 319.305 430.425 319.606 435.134L316.901 495.243C316.179 504.861 306.582 509.069 301.873 509.97L205.096 508.768C191.391 508.768 187.965 499.752 187.965 495.243L189.768 436.636Z" fill="white"/>
<path d="M205.096 421.008C200.388 421.509 190.73 425.336 189.768 436.636L187.965 495.243C187.965 499.752 191.391 508.768 205.096 508.768L301.873 509.97C306.582 509.069 316.179 504.861 316.901 495.243L319.606 435.134C319.305 430.425 315.638 421.008 303.376 421.008H205.096Z" fill="white"/>
<path d="M183.757 704.426V720.956C167.628 721.757 134.407 731.475 130.56 763.935C128.857 769.946 130.199 782.869 149.194 786.476C170.834 791.685 244.468 790.383 263.703 763.935V702.322C255.288 711.038 217.719 723.961 183.757 704.426Z" fill="white"/>
<path d="M321.108 716.748L322.911 779.262C336.436 808.416 402.617 821.039 429.306 792.186C432.011 782.067 431.41 757.322 407.366 739.289L404.06 711.038V704.726C383.863 729.01 340.343 722.859 321.108 716.748Z" fill="white"/>
<path d="M395.644 593.223C395.644 586.009 425.399 589.315 439.525 561.364C443.408 533.6 416.311 511.606 395.344 506.4C383.854 503.547 374.205 505.736 372.502 514.779V516.582C361.182 519.488 337.879 529.687 335.234 547.239C334.232 552.749 334.633 562.566 344.251 557.758C341.045 566.874 338.66 583.785 354.77 578.496C352.666 585.909 352.846 599.474 370.398 594.425C371.3 600.937 377.611 609.813 395.644 593.223Z" fill="white"/>
<path d="M439.525 561.364L443.732 559.862H447.339L462.366 547.239V540.326C462.891 539.651 463.672 538.749 464.531 537.921C460.908 523.604 445.977 494.229 414.88 488.189C413.991 488.017 413.09 487.863 412.175 487.73C406.615 492.354 395.846 502.165 395.347 505.928C395.346 506.087 395.345 506.244 395.344 506.4C416.311 511.606 443.408 533.6 439.525 561.364Z" fill="white"/>
<path d="M468.678 535.818C496.93 504.861 557.4 478.052 449.443 385.243C448.441 379.432 440.066 366.669 414.579 362.1C407.355 366.645 399.918 370.737 392.339 374.41C354.349 417.919 380.918 447.648 398.951 457.074C407.295 462.484 424.216 473.604 425.142 474.806C421.171 479.525 417.269 484.778 414.88 488.189C445.977 494.229 460.908 523.604 464.531 537.921C465.968 536.539 467.625 535.366 468.678 535.818Z" fill="white"/>
<path d="M421.191 193.36C440.74 171.898 464.606 183.233 474.689 192.29C491.058 22.9477 230.698 -76.2541 120.843 93.7095C252.583 -21.1004 416.984 113.546 421.191 193.36Z" fill="white"/>
<path d="M444.935 301.99C416.382 286.061 425.098 190.486 474.689 192.29C464.606 183.233 440.74 171.898 421.191 193.36C419.763 194.927 418.358 196.67 416.984 198.601C415.821 200.514 414.601 202.724 413.377 205.185C406.262 219.49 398.998 242.313 401.921 265.023C403.262 275.443 406.747 285.84 413.377 295.378C418.887 300.788 432.912 309.684 444.935 301.99Z" fill="white"/>
<path d="M444.935 301.99C472.886 309.203 510.274 230.039 474.689 192.29C425.098 190.486 416.382 286.061 444.935 301.99Z" fill="white"/>
<path d="M430.208 323.029L444.935 301.99C432.912 309.684 418.887 300.788 413.377 295.378C406.747 285.84 403.262 275.443 401.921 265.023L395.945 281.553C389.126 302.567 363.103 332.539 324.114 351.147C278.901 372.726 216.25 379.025 145.888 338.357C142.081 343.766 140.598 357.652 165.123 369.914L167.528 371.718C221.727 387.046 360.48 395.16 430.208 323.029Z" fill="white"/>
<path d="M120.341 113.546C88.1825 151.715 62.2149 268.389 145.888 338.357C216.25 379.025 278.901 372.726 324.114 351.147C161.216 385.243 126.653 283.957 150.096 236.47C151.699 229.858 154.905 210.263 154.905 184.776C144.806 146.306 159.112 113.362 167.528 101.698C161.993 97.9376 156.942 93.2852 152.5 87.5705C138.129 94.4548 126.886 103.326 120.341 113.546Z" fill="#433E44"/>
<path d="M395.945 281.553C386.327 272.166 384.989 259.083 387.643 246.389C387.874 245.283 388.136 244.18 388.425 243.083H376.409C380.421 229.858 374.738 166.643 371.395 136.688C364.455 128.009 356.85 120.316 348.741 113.546C316.13 92.7809 220.044 137.381 167.528 101.698C159.112 113.362 144.806 146.306 154.905 184.776C154.905 210.263 151.699 229.858 150.096 236.47C126.653 283.957 161.216 385.243 324.114 351.147C363.103 332.539 389.126 302.567 395.945 281.553Z" fill="#FCC49E"/>
<path d="M321.108 716.748L315.999 711.038L283.239 617.266H273.02M321.108 716.748L322.911 779.262C336.436 808.416 402.617 821.039 429.306 792.186C432.011 782.067 431.41 757.322 407.366 739.289L404.06 711.038V704.726M321.108 716.748C340.343 722.859 383.863 729.01 404.06 704.726M404.06 704.726L395.644 593.223M395.644 593.223C395.644 586.009 425.399 589.315 439.525 561.364M395.644 593.223C377.611 609.813 371.3 600.937 370.398 594.425M439.525 561.364L443.732 559.862H447.339L462.366 547.239V540.326C462.891 539.651 463.672 538.749 464.531 537.921M439.525 561.364C443.408 533.6 416.311 511.606 395.344 506.4M414.579 362.1C440.066 366.669 448.441 379.432 449.443 385.243C557.4 478.052 496.93 504.861 468.678 535.818C467.625 535.366 465.968 536.539 464.531 537.921M414.579 362.1C421.892 356.49 435.617 341.963 432.011 328.739L430.208 323.029M414.579 362.1C407.355 366.645 399.918 370.737 392.339 374.41M430.208 323.029L444.935 301.99M430.208 323.029C360.48 395.16 221.727 387.046 167.528 371.718M444.935 301.99C472.886 309.203 510.274 230.039 474.689 192.29M444.935 301.99C416.382 286.061 425.098 190.486 474.689 192.29M444.935 301.99C432.912 309.684 418.887 300.788 413.377 295.378C406.747 285.84 403.261 275.443 401.921 265.023M474.689 192.29C464.606 183.233 440.74 171.898 421.191 193.36M474.689 192.29C491.058 22.9477 230.698 -76.2541 120.843 93.7095M120.341 113.546C116.735 114.027 117.035 103.928 117.636 98.8188C118.69 97.0894 119.759 95.3863 120.843 93.7095M120.341 113.546C88.1825 151.716 62.2149 268.389 145.888 338.357M120.341 113.546C126.886 103.326 138.129 94.4548 152.5 87.5705M145.888 338.357C142.081 343.766 140.598 357.652 165.123 369.914L167.528 371.718M145.888 338.357C216.25 379.025 278.901 372.726 324.114 351.147M167.528 371.718C166.33 372.683 165.018 373.751 163.62 374.9M112.527 403.576L123.046 414.095C126.112 406.869 149.355 386.628 163.62 374.9M112.527 403.576C113.93 398.767 113.669 387.647 101.407 381.636M112.527 403.576C100.986 435.554 71.6523 441.345 58.4282 440.243M101.407 381.636C110.423 366.007 111.205 324.051 74.6578 326.936M101.407 381.636C92.0897 395.962 66.7833 422.51 40.0946 414.095M74.6578 326.936L32.2804 280.351C29.0745 278.347 21.5207 275.542 16.9524 280.351C14.7483 282.054 11.2419 287.383 14.8485 295.078L43.4007 331.143M74.6578 326.936L56.6249 342.564M43.4007 331.143C36.5882 329.04 23.0835 329.34 23.5644 347.373M43.4007 331.143L56.6249 342.564M23.5644 347.373C7.5351 352.883 -11.9004 378.33 40.0946 414.095M23.5644 347.373C31.5791 351.38 48.6904 363.483 53.0183 379.832C52.8179 385.042 49.2915 394.619 36.7886 391.253C32.3806 388.148 22.9032 380.313 20.2584 373.821M40.0946 414.095C38.3915 421.008 39.6739 435.915 58.4282 440.243M58.4282 440.243C69.0476 473.303 105.735 525.839 167.528 471.5M167.528 471.5C166.025 495.845 164.462 546.637 170.233 555.053C176.845 605.244 172.697 707.551 183.757 704.426M167.528 471.5C169.631 447.456 175.162 397.445 180.451 389.751M183.757 704.426V720.956C167.628 721.757 134.407 731.475 130.56 763.935C128.857 769.946 130.199 782.869 149.194 786.476C170.834 791.685 244.468 790.383 263.703 763.935V702.322M183.757 704.426C217.719 723.961 255.288 711.038 263.703 702.322M263.703 702.322C268.212 702.322 269.173 667.037 273.02 617.266M273.02 617.266C265.206 616.765 244.108 612.878 222.228 601.337M180.451 389.751C174.841 385.861 163.62 377.445 163.62 374.9M180.451 389.751C206.095 404.365 308.088 415.235 392.339 374.41M56.6249 342.564C50.7141 350.178 44.8433 365.466 68.6469 365.707M68.6469 365.707C72.3536 364.605 80.9694 360.657 85.7782 353.685M68.6469 365.707C66.2425 380.373 57.8271 383.038 53.9199 382.537M344.251 557.758C334.633 562.566 334.232 552.749 335.234 547.239C337.879 529.687 361.182 519.488 372.502 516.582V514.779C374.205 505.736 383.854 503.547 395.344 506.4M344.251 557.758C349.26 552.448 361.322 541.528 369.497 540.326M344.251 557.758C341.045 566.874 338.66 583.785 354.77 578.496M354.77 578.496C359.078 571.683 369.857 557.698 378.513 556.255M354.77 578.496C352.666 585.909 352.846 599.474 370.398 594.425M370.398 594.425C372.602 588.314 379.655 575.37 390.235 572.485M464.531 537.921C460.908 523.604 445.977 494.229 414.88 488.189M395.344 506.4C395.323 506.255 395.325 506.098 395.347 505.928M395.344 506.4C395.345 506.244 395.346 506.087 395.347 505.928M414.88 488.189C413.991 488.017 413.09 487.863 412.175 487.73C406.615 492.354 395.846 502.165 395.347 505.928M414.88 488.189C417.269 484.778 421.171 479.525 425.142 474.806M435.918 464.587C433.256 465.797 429.164 470.027 425.142 474.806M398.951 457.074C407.295 462.484 424.216 473.604 425.142 474.806M398.951 457.074C380.918 447.648 354.349 417.919 392.339 374.41M398.951 457.074C396.333 460.405 395.462 490.724 395.347 505.928M413.377 205.185C414.601 202.724 415.821 200.514 416.984 198.601C418.358 196.67 419.763 194.927 421.191 193.36M413.377 205.185C406.262 219.49 398.998 242.313 401.921 265.023M413.377 205.185C411.394 205.665 408.855 207.496 406.13 210.323M395.945 281.553L401.921 265.023M395.945 281.553C386.327 272.166 384.989 259.083 387.643 246.389C387.874 245.283 388.136 244.18 388.425 243.083M395.945 281.553C389.126 302.567 363.103 332.539 324.114 351.147M406.13 210.323C399.069 180.368 386.89 156.067 371.395 136.688M406.13 210.323C399.578 217.12 391.954 229.68 388.425 243.083M421.191 193.36C416.984 113.546 252.583 -21.1004 120.843 93.7095M152.5 87.5705C202.126 63.7985 289.063 63.7128 348.741 113.546M152.5 87.5705C156.942 93.2852 161.993 97.9376 167.528 101.698M348.741 113.546C356.85 120.316 364.455 128.009 371.395 136.688M348.741 113.546C316.13 92.7809 220.044 137.381 167.528 101.698M371.395 136.688C374.738 166.643 380.421 229.858 376.409 243.083H388.425M167.528 101.698C159.112 113.362 144.806 146.306 154.905 184.776C154.905 210.263 151.699 229.858 150.096 236.47C126.653 283.957 161.216 385.243 324.114 351.147M205.096 421.008C200.388 421.509 190.73 425.336 189.768 436.636L187.965 495.243C187.965 499.752 191.391 508.768 205.096 508.768L301.873 509.97C306.582 509.069 316.179 504.861 316.901 495.243L319.606 435.134C319.305 430.425 315.638 421.008 303.376 421.008H205.096Z" stroke="#252525" stroke-width="11"/>
<path d="M348.742 113.546C289.063 63.7128 202.126 63.7985 152.5 87.5705C156.942 93.2852 161.993 97.9376 167.528 101.698C220.044 137.381 316.13 92.7809 348.742 113.546Z" fill="#563D3B"/>
<path d="M406.13 210.323C399.069 180.368 386.89 156.067 371.395 136.688C374.738 166.643 380.421 229.858 376.41 243.083H388.425C391.954 229.68 399.578 217.12 406.13 210.323Z" fill="#563D3B"/>
<path d="M401.921 265.023C398.998 242.313 406.263 219.49 413.377 205.185C411.395 205.665 408.855 207.496 406.13 210.323C399.578 217.12 391.954 229.68 388.425 243.083C388.136 244.18 387.875 245.283 387.643 246.389C384.99 259.083 386.327 272.166 395.945 281.553L401.921 265.023Z" fill="#5D4F54"/>
<path d="M117.636 98.8188C117.035 103.928 116.735 114.027 120.341 113.546C126.886 103.326 138.129 94.4548 152.5 87.5705C202.126 63.7985 289.063 63.7128 348.742 113.546C356.85 120.316 364.455 128.009 371.395 136.688C386.89 156.067 399.069 180.368 406.13 210.323C408.855 207.496 411.395 205.665 413.377 205.185C414.601 202.724 415.821 200.514 416.984 198.601C418.359 196.67 419.764 194.927 421.191 193.36C416.984 113.546 252.583 -21.1004 120.844 93.7095C119.76 95.3863 118.691 97.0894 117.636 98.8188Z" fill="#F18730"/>
<path d="M414.579 362.1C421.893 356.49 435.618 341.963 432.011 328.739L430.208 323.029C360.481 395.16 221.727 387.046 167.528 371.718C166.33 372.683 165.018 373.751 163.621 374.9C163.621 377.445 174.841 385.861 180.451 389.751C206.095 404.365 308.089 415.235 392.339 374.41C399.919 370.737 407.355 366.645 414.579 362.1Z" fill="#62595F"/>
<path d="M101.407 381.636C110.423 366.007 111.205 324.051 74.6581 326.936L56.6251 342.564L43.4009 331.143C36.5884 329.04 23.0838 329.34 23.5646 347.373C7.53534 352.883 -11.9001 378.33 40.0949 414.095C66.7836 422.51 92.0899 395.962 101.407 381.636Z" fill="white"/>
<path d="M74.6581 326.936L32.2806 280.351C29.0748 278.347 21.521 275.542 16.9526 280.351C14.7486 282.054 11.2422 287.383 14.8488 295.078L43.4009 331.143L56.6251 342.564L74.6581 326.936Z" fill="white"/>
<path d="M112.527 403.576C113.93 398.767 113.669 387.647 101.407 381.636C92.0899 395.962 66.7836 422.51 40.0949 414.095C38.3918 421.008 39.6741 435.915 58.4284 440.243C71.6526 441.345 100.986 435.554 112.527 403.576Z" fill="white"/>
<path d="M123.047 414.095L112.527 403.576C100.986 435.554 71.6526 441.345 58.4284 440.243C69.0478 473.303 105.735 525.839 167.528 471.5C169.632 447.456 175.162 397.445 180.451 389.751C174.841 385.861 163.621 377.445 163.621 374.9C149.355 386.628 126.112 406.869 123.047 414.095Z" fill="white"/>
<path fill-rule="evenodd" clip-rule="evenodd" d="M283.239 617.266L315.999 711.038L321.108 716.748C340.344 722.859 383.863 729.01 404.06 704.726L395.645 593.223C377.612 609.813 371.3 600.937 370.399 594.425C352.847 599.474 352.666 585.909 354.77 578.496C338.661 583.785 341.045 566.874 344.251 557.758C334.633 562.566 334.233 552.749 335.234 547.239C337.879 529.687 361.182 519.488 372.503 516.582V514.779C374.205 505.736 383.854 503.547 395.344 506.4C395.323 506.255 395.325 506.098 395.348 505.928C395.462 490.724 396.333 460.405 398.951 457.074C380.918 447.648 354.349 417.919 392.339 374.41C308.089 415.235 206.095 404.365 180.451 389.751C175.162 397.445 169.632 447.456 167.528 471.5C166.025 495.845 164.462 546.637 170.233 555.053C176.845 605.245 172.697 707.552 183.758 704.426C217.72 723.961 255.288 711.038 263.704 702.322C268.212 702.322 269.174 667.037 273.021 617.266H283.239ZM189.768 436.636C190.73 425.336 200.388 421.509 205.097 421.008H303.376C315.639 421.008 319.305 430.425 319.606 435.134L316.901 495.243C316.18 504.861 306.582 509.069 301.873 509.97L205.097 508.768C191.391 508.768 187.965 499.752 187.965 495.243L189.768 436.636Z" fill="white"/>
<path d="M205.097 421.008C200.388 421.509 190.73 425.336 189.768 436.636L187.965 495.243C187.965 499.752 191.391 508.768 205.097 508.768L301.873 509.97C306.582 509.069 316.18 504.861 316.901 495.243L319.606 435.134C319.305 430.425 315.639 421.008 303.376 421.008H205.097Z" fill="white"/>
<path d="M183.758 704.426V720.956C167.628 721.757 134.407 731.475 130.56 763.935C128.857 769.946 130.2 782.869 149.194 786.476C170.834 791.685 244.468 790.383 263.704 763.935V702.322C255.288 711.038 217.72 723.961 183.758 704.426Z" fill="white"/>
<path d="M321.108 716.748L322.912 779.262C336.436 808.416 402.617 821.039 429.306 792.186C432.011 782.067 431.41 757.322 407.366 739.289L404.06 711.038V704.726C383.863 729.01 340.344 722.859 321.108 716.748Z" fill="white"/>
<path d="M395.645 593.223C395.645 586.009 425.399 589.315 439.525 561.364C443.408 533.6 416.312 511.606 395.344 506.4C383.854 503.547 374.205 505.736 372.503 514.779V516.582C361.182 519.488 337.879 529.687 335.234 547.239C334.233 552.749 334.633 562.566 344.251 557.758C341.045 566.874 338.661 583.785 354.77 578.496C352.666 585.909 352.847 599.474 370.399 594.425C371.3 600.937 377.612 609.813 395.645 593.223Z" fill="white"/>
<path d="M439.525 561.364L443.733 559.862H447.339L462.367 547.239V540.326C462.892 539.651 463.672 538.749 464.531 537.921C460.908 523.604 445.978 494.229 414.88 488.189C413.992 488.017 413.09 487.863 412.175 487.73C406.615 492.354 395.847 502.165 395.348 505.928C395.346 506.087 395.345 506.244 395.344 506.4C416.312 511.606 443.408 533.6 439.525 561.364Z" fill="white"/>
<path d="M468.678 535.818C496.93 504.861 557.4 478.052 449.443 385.243C448.441 379.432 440.066 366.669 414.579 362.1C407.355 366.645 399.919 370.737 392.339 374.41C354.349 417.919 380.918 447.648 398.951 457.074C407.295 462.484 424.216 473.604 425.143 474.806C421.171 479.525 417.269 484.778 414.88 488.189C445.978 494.229 460.908 523.604 464.531 537.921C465.968 536.539 467.625 535.366 468.678 535.818Z" fill="white"/>
<path d="M421.191 193.36C440.741 171.898 464.606 183.233 474.689 192.29C491.058 22.9477 230.698 -76.2541 120.844 93.7095C252.583 -21.1004 416.984 113.546 421.191 193.36Z" fill="white"/>
<path d="M444.935 301.99C416.383 286.061 425.099 190.486 474.689 192.29C464.606 183.233 440.741 171.898 421.191 193.36C419.764 194.927 418.359 196.67 416.984 198.601C415.821 200.514 414.601 202.724 413.377 205.185C406.263 219.49 398.998 242.313 401.921 265.023C403.262 275.443 406.748 285.84 413.377 295.378C418.887 300.788 432.913 309.684 444.935 301.99Z" fill="white"/>
<path d="M444.935 301.99C472.886 309.203 510.274 230.039 474.689 192.29C425.099 190.486 416.383 286.061 444.935 301.99Z" fill="white"/>
<path d="M430.208 323.029L444.935 301.99C432.913 309.684 418.887 300.788 413.377 295.378C406.748 285.84 403.262 275.443 401.921 265.023L395.945 281.553C389.126 302.567 363.104 332.539 324.114 351.147C278.901 372.726 216.251 379.025 145.888 338.357C142.081 343.766 140.599 357.652 165.123 369.914L167.528 371.718C221.727 387.046 360.481 395.16 430.208 323.029Z" fill="white"/>
<path d="M120.341 113.546C88.1828 151.715 62.2151 268.389 145.888 338.357C216.251 379.025 278.901 372.726 324.114 351.147C161.216 385.243 126.653 283.957 150.096 236.47C151.699 229.858 154.905 210.263 154.905 184.776C144.806 146.306 159.112 113.362 167.528 101.698C161.993 97.9376 156.942 93.2852 152.5 87.5705C138.129 94.4548 126.886 103.326 120.341 113.546Z" fill="#433E44"/>
<path d="M395.945 281.553C386.327 272.166 384.99 259.083 387.643 246.389C387.875 245.283 388.136 244.18 388.425 243.083H376.41C380.421 229.858 374.738 166.643 371.395 136.688C364.455 128.009 356.85 120.316 348.742 113.546C316.13 92.7809 220.044 137.381 167.528 101.698C159.112 113.362 144.806 146.306 154.905 184.776C154.905 210.263 151.699 229.858 150.096 236.47C126.653 283.957 161.216 385.243 324.114 351.147C363.104 332.539 389.126 302.567 395.945 281.553Z" fill="#FCC49E"/>
<path d="M321.108 716.748L315.999 711.038L283.239 617.266H273.021M321.108 716.748L322.912 779.262C336.436 808.416 402.617 821.039 429.306 792.186C432.011 782.067 431.41 757.322 407.366 739.289L404.06 711.038V704.726M321.108 716.748C340.344 722.859 383.863 729.01 404.06 704.726M404.06 704.726L395.645 593.223M395.645 593.223C395.645 586.009 425.399 589.315 439.525 561.364M395.645 593.223C377.612 609.813 371.3 600.937 370.399 594.425M439.525 561.364L443.733 559.862H447.339L462.367 547.239V540.326C462.892 539.651 463.672 538.749 464.531 537.921M439.525 561.364C443.408 533.6 416.312 511.606 395.344 506.4M414.579 362.1C440.066 366.669 448.441 379.432 449.443 385.243C557.4 478.052 496.93 504.861 468.678 535.818C467.625 535.366 465.968 536.539 464.531 537.921M414.579 362.1C421.893 356.49 435.618 341.963 432.011 328.739L430.208 323.029M414.579 362.1C407.355 366.645 399.919 370.737 392.339 374.41M430.208 323.029L444.935 301.99M430.208 323.029C360.481 395.16 221.727 387.046 167.528 371.718M444.935 301.99C472.886 309.203 510.274 230.039 474.689 192.29M444.935 301.99C416.383 286.061 425.099 190.486 474.689 192.29M444.935 301.99C432.913 309.684 418.887 300.788 413.377 295.378C406.748 285.84 403.262 275.443 401.921 265.023M474.689 192.29C464.606 183.233 440.741 171.898 421.191 193.36M474.689 192.29C491.058 22.9477 230.698 -76.2541 120.844 93.7095M120.341 113.546C116.735 114.027 117.035 103.928 117.636 98.8188C118.691 97.0894 119.76 95.3863 120.844 93.7095M120.341 113.546C88.1828 151.716 62.2151 268.389 145.888 338.357M120.341 113.546C126.886 103.326 138.129 94.4548 152.5 87.5705M145.888 338.357C142.081 343.766 140.599 357.652 165.123 369.914L167.528 371.718M145.888 338.357C216.251 379.025 278.901 372.726 324.114 351.147M167.528 371.718C166.33 372.683 165.018 373.751 163.621 374.9M112.527 403.576L123.047 414.095C126.112 406.869 149.355 386.628 163.621 374.9M112.527 403.576C113.93 398.767 113.669 387.647 101.407 381.636M112.527 403.576C100.986 435.554 71.6526 441.345 58.4284 440.243M101.407 381.636C110.423 366.007 111.205 324.051 74.6581 326.936M101.407 381.636C92.0899 395.962 66.7836 422.51 40.0949 414.095M74.6581 326.936L32.2806 280.351C29.0748 278.347 21.521 275.542 16.9526 280.351C14.7486 282.054 11.2422 287.383 14.8488 295.078L43.4009 331.143M74.6581 326.936L56.6251 342.564M43.4009 331.143C36.5884 329.04 23.0838 329.34 23.5646 347.373M43.4009 331.143L56.6251 342.564M23.5646 347.373C7.53534 352.883 -11.9001 378.33 40.0949 414.095M23.5646 347.373C31.5793 351.38 48.6906 363.483 53.0185 379.832C52.8182 385.042 49.2917 394.619 36.7889 391.253C32.3808 388.148 22.9035 380.313 20.2587 373.821M40.0949 414.095C38.3918 421.008 39.6741 435.915 58.4284 440.243M58.4284 440.243C69.0478 473.303 105.735 525.839 167.528 471.5M167.528 471.5C166.025 495.845 164.462 546.637 170.233 555.053C176.845 605.244 172.697 707.551 183.758 704.426M167.528 471.5C169.632 447.456 175.162 397.445 180.451 389.751M183.758 704.426V720.956C167.628 721.757 134.407 731.475 130.56 763.935C128.857 769.946 130.2 782.869 149.194 786.476C170.834 791.685 244.468 790.383 263.704 763.935V702.322M183.758 704.426C217.72 723.961 255.288 711.038 263.704 702.322M263.704 702.322C268.212 702.322 269.174 667.037 273.021 617.266M273.021 617.266C265.206 616.765 244.108 612.878 222.228 601.337M180.451 389.751C174.841 385.861 163.621 377.445 163.621 374.9M180.451 389.751C206.095 404.365 308.089 415.235 392.339 374.41M56.6251 342.564C50.7143 350.178 44.8436 365.466 68.6471 365.707M68.6471 365.707C72.3539 364.605 80.9696 360.657 85.7784 353.685M68.6471 365.707C66.2427 380.373 57.8273 383.038 53.9202 382.537M344.251 557.758C334.633 562.566 334.233 552.749 335.234 547.239C337.879 529.687 361.182 519.488 372.502 516.582V514.779C374.205 505.736 383.854 503.547 395.344 506.4M344.251 557.758C349.26 552.448 361.322 541.528 369.497 540.326M344.251 557.758C341.045 566.874 338.661 583.785 354.77 578.496M354.77 578.496C359.078 571.683 369.858 557.698 378.513 556.255M354.77 578.496C352.666 585.909 352.847 599.474 370.399 594.425M370.399 594.425C372.603 588.314 379.656 575.37 390.235 572.485M464.531 537.921C460.908 523.604 445.978 494.229 414.88 488.189M395.344 506.4C395.323 506.255 395.325 506.098 395.348 505.928M395.344 506.4C395.345 506.244 395.346 506.087 395.348 505.928M414.88 488.189C413.992 488.017 413.09 487.863 412.175 487.73C406.615 492.354 395.847 502.165 395.348 505.928M414.88 488.189C417.269 484.778 421.171 479.525 425.143 474.806M435.918 464.587C433.257 465.797 429.164 470.027 425.143 474.806M398.951 457.074C407.295 462.484 424.216 473.604 425.143 474.806M398.951 457.074C380.918 447.648 354.349 417.919 392.339 374.41M398.951 457.074C396.333 460.405 395.462 490.724 395.348 505.928M413.377 205.185C414.601 202.724 415.821 200.514 416.984 198.601C418.359 196.67 419.764 194.927 421.191 193.36M413.377 205.185C406.263 219.49 398.998 242.313 401.921 265.023M413.377 205.185C411.395 205.665 408.855 207.496 406.13 210.323M395.945 281.553L401.921 265.023M395.945 281.553C386.327 272.166 384.99 259.083 387.643 246.389C387.875 245.283 388.136 244.18 388.425 243.083M395.945 281.553C389.126 302.567 363.104 332.539 324.114 351.147M406.13 210.323C399.069 180.368 386.89 156.067 371.395 136.688M406.13 210.323C399.578 217.12 391.954 229.68 388.425 243.083M421.191 193.36C416.984 113.546 252.583 -21.1004 120.844 93.7095M152.5 87.5705C202.126 63.7985 289.063 63.7128 348.742 113.546M152.5 87.5705C156.942 93.2852 161.993 97.9376 167.528 101.698M348.742 113.546C356.85 120.316 364.455 128.009 371.395 136.688M348.742 113.546C316.13 92.7809 220.044 137.381 167.528 101.698M371.395 136.688C374.738 166.643 380.421 229.858 376.41 243.083H388.425M167.528 101.698C159.112 113.362 144.806 146.306 154.905 184.776C154.905 210.263 151.699 229.858 150.096 236.47C126.653 283.957 161.216 385.243 324.114 351.147M205.097 421.008C200.388 421.509 190.73 425.336 189.768 436.636L187.965 495.243C187.965 499.752 191.391 508.768 205.097 508.768L301.873 509.97C306.582 509.069 316.18 504.861 316.901 495.243L319.606 435.134C319.305 430.425 315.639 421.008 303.376 421.008H205.097Z" stroke="#252525" stroke-width="11"/>
<path d="M458.459 117.753C461.104 140.595 456.656 168.847 453.35 179.667L473.487 188.984C481.421 169.268 466.274 132.981 458.459 117.753Z" fill="#D4CECC"/>
<path d="M461.164 196.497C480.4 191.989 465.673 289.367 431.41 276.744C467.175 372.018 522.777 167.344 461.164 196.497Z" fill="#D4CECC"/>
<path d="M401.355 261.115C412.415 272.656 424.197 271.534 428.705 269.531C427.503 272.416 436.82 294.376 441.629 304.996C440.812 304.966 440.01 304.921 439.224 304.86L441.629 308.302C437.782 321.285 407.166 342.765 392.339 351.881C349.54 378.811 285.744 381.335 259.195 379.231C375.087 356.87 403.058 305.196 402.557 282.154L404.984 280.952C402.008 273.781 401.129 266.428 401.355 261.115Z" fill="#D4CECC"/>
<path d="M447.039 383.138C412.475 360.597 361.983 421.609 402.257 437.237C408.668 443.549 424.377 456.593 435.918 458.276L426.301 471.5L397.589 454.068L396.546 458.276V469.697V479.314V489.833C396.546 493.139 394.743 499.451 394.743 500.353C394.743 501.074 393.34 503.258 392.639 504.26L379.114 507.265L375.808 510.571L368.896 518.085L371.601 424.314L373.103 423.112V414.696L375.808 401.772L380.016 393.958C381.519 391.754 384.705 386.925 385.426 385.242C386.147 383.559 391.136 379.532 393.541 377.729L399.552 371.718L407.667 366.308L413.678 363.903H424.798L431.109 368.412L438.623 372.92L447.039 383.138Z" fill="#D4CECC"/>
<path d="M457.257 519.888C475.29 509.87 508.411 479.735 496.629 439.341L505.946 451.063C506.447 452.565 507.569 456.352 508.05 459.478C508.651 463.385 510.454 469.396 510.454 471.5C510.454 473.604 511.356 479.014 510.454 482.32C509.553 485.626 504.744 498.249 504.444 500.353C504.203 502.036 498.332 503.659 495.427 504.26L489.116 512.375C487.412 514.879 483.826 519.888 483.105 519.888C482.203 519.888 480.7 525.899 479.798 526.5C479.077 526.981 473.687 531.109 471.083 533.113L467.175 537.32L462.667 540.626V545.736C462.667 546.938 458.459 552.648 457.257 553.249C456.296 553.73 451.647 555.654 449.443 556.555L443.733 560.162H441.028L434.716 570.08C433.414 571.282 430.629 573.867 429.907 574.588C429.006 575.49 425.7 576.692 425.098 577.594C424.618 578.315 415.681 582.703 411.273 584.807C409.77 585.408 406.525 586.731 405.563 587.211C404.601 587.692 399.151 590.217 396.546 591.419L394.743 593.128L401.055 662.048L404.661 689.999L407.066 737.486L408.568 740.792L416.683 746.202L424.497 757.623L427.503 764.836L430.508 779.563V791.886C430.508 792.847 429.106 795.492 428.405 796.694L416.683 803.607H407.066C415.721 796.875 417.084 789.381 416.683 786.476C420.29 765.077 403.96 745.901 395.344 738.989L396.246 738.388L389.634 736.584C390.355 732.737 390.936 720.355 391.136 714.644C390.896 706.71 385.827 671.065 383.322 654.234C383.082 646.78 376.81 623.277 373.705 612.458C360 611.977 350.162 596.028 346.956 588.113C335.415 578.736 337.739 572.184 340.344 570.08L344.251 576.993L349.06 577.594L352.967 579.097L354.469 584.807L355.972 591.419L357.174 594.124L363.185 595.326H370.399L371.3 594.575V592.321L378.213 588.113C383.422 583.505 395.344 574.047 401.355 573.086C411.674 569.78 432.552 558.659 433.514 540.626L436.519 538.522H438.323C442.931 536.619 452.869 530.768 455.755 522.593L457.257 519.888Z" fill="#D4CECC"/>
<path d="M358.677 724.262C338.24 722.579 325.917 732.978 322.311 738.388V725.464V719.153L325.917 718.251L337.038 719.153L358.677 724.262Z" fill="#D4CECC"/>
<path d="M221.026 769.945C219.102 774.995 204.796 783.47 197.883 787.077L233.048 782.569L249.878 775.956L263.102 764.536V720.655L264.906 699.917L270.917 631.092V621.775L275.124 617.266H281.736L284.441 621.775L286.545 619.37C287.026 614.321 302.174 601.838 309.688 596.228C298.627 604.403 265.407 602.64 250.179 600.736C233.108 600.255 210.206 588.313 200.889 582.403C202.331 588.895 216.517 601.337 223.43 606.747C245.55 614.201 245.27 642.713 242.365 656.037C243.567 662.77 241.263 695.109 239.96 710.437V712.841C240.681 718.852 237.656 741.994 236.053 752.814C233.649 759.306 225.033 766.94 221.026 769.945Z" fill="#D4CECC"/>
<path d="M191.572 505.161H194.577L193.168 502.813L191.572 501.855L189.167 496.145V492.874C189.162 492.764 189.162 492.652 189.167 492.538V492.874C189.76 504.459 252.217 499.156 276.928 499.752C284.341 501.154 299.769 501.675 302.174 492.538L305.179 435.434C305.379 432.429 303.376 425.937 293.758 424.013V420.707C298.968 420.206 309.868 419.866 311.791 422.51C314.196 425.816 322.31 432.729 320.808 439.041C319.605 444.09 319.305 448.959 319.305 450.762L318.103 460.38V498.249L314.196 505.161C315.879 515.02 302.274 519.087 295.261 519.888H238.758C200.047 520.369 191.171 510.271 191.572 505.161Z" fill="#D4CECC"/>
<path d="M173.538 410.789C170.894 412.232 160.815 392.956 156.107 383.138L163.019 378.33L169.932 381.035L179.249 392.155L191.872 394.86L226.135 400.57L270.616 402.975L303.075 400.57L344.852 392.155L385.426 380.734L383.622 384.341L376.71 394.559C373.103 403.215 323.513 413.995 299.168 418.303H226.135C201.369 417.581 182.655 406.782 176.394 401.472L173.538 410.789Z" fill="#D4CECC"/>
<path d="M163.019 405.379C165.424 409.226 171.034 418.603 173.538 422.811L169.932 440.844L168.429 461.882L165.424 471.801L163.019 473.904L159.413 479.915L144.385 486.828L131.762 492.839L114.631 494.943L96.2973 489.833L75.8599 471.801L65.3407 458.276L61.133 449.86L60.2314 440.844L54.8215 439.341L48.5099 437.237L40.3951 424.614L39.4935 418.303L41.2968 413.494H44.3023L32.8814 408.685L21.16 400.27L14.8484 392.756L6.43303 378.33C4.02864 373.04 6.83377 371.718 8.53688 371.718C11.4222 375.805 18.1545 376.426 21.16 376.226C41.8377 387.286 48.009 374.423 48.5099 366.608L53.9198 362.401L60.2314 363.603L70.7506 365.105L83.6743 356.991L85.4775 359.395C60.2314 387.767 76.1605 398.466 87.2808 400.27L72.5539 410.789C66.3025 429.784 83.7745 431.527 93.2918 430.024L83.6743 435.434C110.123 497.347 144.085 466.391 151.899 445.052C164.161 436.155 164.422 414.896 163.019 405.379Z" fill="#D4CECC"/>
<path d="M65.3407 332.947C61.0128 336.553 46.3059 327.837 39.4935 323.029V324.832L48.5099 338.657L57.2259 341.362L65.3407 332.947Z" fill="#D4CECC"/>
<path d="M263.703 356.991C299.569 354.186 373.044 327.597 380.016 243.684H387.83C386.828 254.039 386.568 275.991 393.541 280.952C385.326 309.303 347.857 364.204 263.703 356.991Z" fill="#E69A70"/>
<path d="M166.626 105.13L157.309 125.868C165.323 123.163 183.998 118.895 194.577 123.464C209.204 127.671 244.168 134.043 267.009 125.868C284.842 120.959 325.015 114.748 343.048 129.174C350.562 133.182 367.333 150.273 374.305 186.579V163.437V148.109L369.797 138.792L362.283 127.371L353.267 117.453L343.048 110.24L330.125 107.835H310.89L287.447 111.141L267.009 112.644L248.375 116.251H225.534L209.304 115.048L194.577 112.644H188.566L178.347 107.835L169.932 105.13H166.626Z" fill="#E69A70"/>
<path d="M218.921 276.443C221.326 275.842 226.255 273.738 226.736 270.132C220.793 270.611 207.734 269.348 201.141 260.815C200.843 260.429 200.558 260.029 200.287 259.613C200.788 266.125 205.216 278.607 218.921 276.443Z" fill="#E69A70"/>
<path d="M201.141 260.815C210.239 252.159 225 248.793 231.244 248.192L215.615 244.585L209.304 246.388L206.298 248.192L202.992 249.995L201.141 254.804V260.815Z" fill="#FED9B9"/>
<path d="M154.303 229.858C152.5 242.882 150.456 273.137 156.708 289.968C161.316 307.5 186.222 345.089 248.976 355.187L218.02 353.384L202.992 346.772C198.684 345.069 189.828 341.482 188.867 340.761C187.664 339.859 178.347 332.045 177.446 331.444C176.724 330.963 163.32 318.821 156.708 312.81L152.801 304.395L146.489 294.176L145.287 286.362L143.484 276.443V263.219L146.489 251.498L149.795 240.678L154.303 229.858Z" fill="#FED9B9"/>
<path d="M129.461 122.44C119.213 140.577 113.329 158.915 110.259 173.765C110.407 173.954 110.562 174.118 110.724 174.257C119.379 180.749 129.758 152.717 133.866 137.89C135.369 124.742 132.969 121.403 129.461 122.44Z" fill="#F6F5F3"/>
<path d="M110.259 173.765C113.329 158.915 119.213 140.577 129.461 122.44C126.233 123.394 122.067 128.051 119.139 132.18C107.116 148.827 106.543 169.032 110.259 173.765Z" fill="#F6F5F3"/>
<path d="M202.992 359.395C182.856 352.082 138.675 326.695 123.046 283.657C115.532 267.227 101.888 226.913 107.418 197.098C107.476 191.415 108.286 183.311 110.259 173.765C106.543 169.032 107.116 148.827 119.139 132.18C122.067 128.051 126.233 123.394 129.461 122.44C135.384 111.958 142.763 101.542 151.899 91.9061L154.303 89.2012H148.893C143.984 92.9079 134.046 100.502 133.565 101.223C133.085 101.944 116.534 122.161 108.319 132.18L94.1935 176.962L92.0896 187.781L91.188 218.437V237.973C91.3883 240.778 92.0295 246.749 92.9913 248.192C93.953 249.634 96.1971 258.811 97.199 263.219L106.817 286.362L120.642 312.81L129.959 321.826L141.079 334.449L155.205 342.264L184.358 355.187L202.992 359.395Z" fill="#C2BEC0"/>
<path fill-rule="evenodd" clip-rule="evenodd" d="M171.435 187.481C176.805 176.741 192.182 166.871 203.685 177.863C205.702 179.791 207.6 182.359 209.304 185.678C213.411 194.894 217.419 218.858 200.588 240.979C195.1 248.192 174.921 254.143 167.227 229.858C166.485 225.637 165.914 219.009 166.172 211.825C166.471 203.496 167.884 194.42 171.435 187.481ZM206.298 193.792C198.484 167.344 176.744 180.268 173.238 193.792C169.331 202.809 169.631 219.539 170.533 226.552C178.948 255.706 201.441 238.875 204.495 226.853C208.102 216.334 207.601 200.605 206.298 193.792Z" fill="white"/>
<path d="M173.238 193.792C176.744 180.268 198.484 167.344 206.298 193.792C207.601 200.605 208.102 216.334 204.495 226.853C201.441 238.875 178.948 255.706 170.533 226.552C169.631 219.539 169.331 202.809 173.238 193.792Z" fill="black"/>
<path d="M171.435 187.481C176.805 176.741 192.182 166.871 203.685 177.863C205.427 178.364 208.389 178.404 206.298 174.557C200.588 169.648 187.364 163.737 174.44 176.06C170.232 180.268 163.405 191.388 166.172 211.825C166.471 203.496 167.884 194.42 171.435 187.481Z" fill="black"/>
<path fill-rule="evenodd" clip-rule="evenodd" d="M270.616 186.579C271.514 185.618 272.637 184.594 273.949 183.574C283.174 176.406 301.79 169.477 318.103 186.579C323.433 190.355 330.24 207.424 326.518 225.539C325.203 231.937 322.574 238.466 318.103 244.585C310.589 254.203 289.13 267.006 267.009 242.481C261.399 232.363 254.266 207.257 270.616 186.579ZM312.693 197.699C300.37 170.349 274.746 182.973 268.813 198.902C265.807 206.716 261.651 228.996 271.818 240.979C277.428 247.591 292.376 256.547 306.081 240.678C310.489 235.569 317.982 219.82 312.693 197.699Z" fill="white"/>
<path d="M268.813 198.902C274.746 182.973 300.37 170.349 312.693 197.699C317.982 219.82 310.489 235.569 306.081 240.678C292.376 256.547 277.428 247.591 271.818 240.979C261.651 228.996 265.807 206.716 268.813 198.902Z" fill="black"/>
<path d="M273.949 183.574C283.174 176.406 301.79 169.477 318.103 186.579C323.433 190.355 330.24 207.424 326.518 225.539C336.136 211.263 326.882 189.585 321.709 183.574C312.813 173.235 300.17 171.452 294.96 171.852C282.037 171.852 275.825 177.262 271.818 181.169C270.616 183.814 272.738 183.874 273.949 183.574Z" fill="black"/>
<circle cx="294.059" cy="202.208" r="5.10934" fill="white"/>
<circle cx="197.883" cy="198.601" r="5.10934" fill="white"/>
<path d="M290.753 280.952C273.843 291.134 244.638 292.562 223.129 291.527C224.231 296.517 228.84 304.094 237.255 304.094C256.19 305.132 294.059 301.756 294.059 279.953C292.876 280.224 291.75 280.574 290.753 280.952Z" fill="white"/>
<path d="M297.419 309.804C283.706 326.955 257.082 339.773 237.255 327.719C244.504 317.139 266.686 298.744 297.419 309.804Z" fill="#CD6542"/>
<path d="M223.129 291.527C220.497 291.4 217.98 291.236 215.615 291.047C219.828 310.476 227.763 321.948 237.255 327.719C244.504 317.139 266.686 298.744 297.419 309.804C301.964 304.12 305.09 297.96 306.081 292.072C309.144 279.412 300.719 278.428 294.059 279.953C294.059 301.756 256.19 305.132 237.255 304.094C228.84 304.094 224.231 296.517 223.129 291.527Z" fill="#252525"/>
<path d="M166.025 152.918C172.036 146.506 187.184 135.786 199.686 144.202C209.003 150.473 216.818 138.191 202.692 131.579C188.566 126.169 168.189 128.152 166.025 152.918Z" fill="#252525"/>
<path d="M279.632 140.896C277.128 144.302 274.824 150.633 285.643 148.71C299.168 146.306 310.289 140.295 336.436 162.836L338.54 164.639C341.245 146.606 302.775 118.956 279.632 140.896Z" fill="#252525"/>
<path d="M130.861 763.934C147.19 773.752 196.38 785.754 262.501 755.219M216.217 736.284C212.009 731.475 198.845 721.978 179.85 722.459M176.544 641.01C189.167 652.03 225.413 668.781 269.414 647.622M169.331 551.146C178.675 556.826 202.943 564.74 242.965 567.056M339.442 562.566C300.678 567.729 268.592 568.54 242.965 567.056M242.965 567.056C243.366 578.383 247.534 603.802 260.998 614.862M296.764 653.633C313.595 662.549 357.595 673.229 398.951 644.616M353.267 747.104C359.879 740.492 380.076 730.273 407.967 742.295M323.212 769.044C337.739 784.773 379.174 809.017 428.705 780.164M166.926 515.08C169.641 524.193 190.393 532.93 239.058 534.433M239.058 534.433C265.829 535.26 301.046 533.898 346.354 529.205C352.866 524.397 367.453 515.08 373.704 516.282C377.812 515.681 387.109 514.839 391.437 516.282M239.058 534.433V509.67H284.441C281.536 508.367 275.785 504.56 276.026 499.752L278.43 434.833C278.831 430.826 281.135 422.811 287.146 422.811M155.806 478.713C155.906 459.879 150.216 419.866 126.653 410.488L121.543 413.494C126.853 418.804 136.871 432.969 134.467 447.155M66.8435 374.122C66.6431 380.333 67.5648 393.177 72.8545 394.86M402.557 459.478C399.452 436.336 404 388.909 447.038 384.341M461.765 443.549C456.255 442.948 442.109 447.155 429.607 468.795C443.071 457.735 462.266 458.977 470.181 460.981M205.397 289.968C208.291 290.362 211.75 290.739 215.615 291.047M215.615 291.047C217.98 291.236 220.497 291.4 223.129 291.527M215.615 291.047C219.828 310.476 227.763 321.948 237.255 327.719M223.129 291.527C244.638 292.562 273.843 291.134 290.753 280.952C291.75 280.574 292.876 280.224 294.059 279.953M223.129 291.527C224.231 296.517 228.84 304.094 237.255 304.094C256.19 305.132 294.059 301.756 294.059 279.953M294.059 279.953C300.719 278.428 309.144 279.412 306.081 292.072C305.09 297.96 301.964 304.12 297.419 309.804M237.255 327.719C257.082 339.774 283.706 326.955 297.419 309.804M237.255 327.719C244.504 317.139 266.686 298.744 297.419 309.804M220.424 275.842C195.479 279.953 187.063 235.569 229.441 246.99M212.61 445.953C210.506 446.154 206.118 447.937 205.397 453.467V469.096C205.898 472.201 208.402 478.232 214.413 477.511H252.884C255.388 477.711 260.578 476.669 261.299 470.899V453.467C261.199 451.163 259.736 446.675 254.687 447.155L212.61 445.953ZM166.025 152.918C172.036 146.506 187.184 135.786 199.686 144.202C209.003 150.473 216.818 138.191 202.692 131.579C188.566 126.169 168.189 128.152 166.025 152.918ZM279.632 140.896C277.128 144.302 274.824 150.633 285.643 148.71C299.168 146.306 310.289 140.295 336.436 162.836L338.54 164.639C341.245 146.606 302.775 118.956 279.632 140.896Z" stroke="#252525" stroke-width="5"/>
<path d="M348.741 113.546C289.063 63.7128 202.126 63.7985 152.5 87.5705C156.942 93.2852 161.993 97.9376 167.528 101.698C220.044 137.381 316.13 92.7809 348.741 113.546Z" fill="#563D3B"/>
<path d="M406.13 210.323C399.069 180.368 386.89 156.067 371.395 136.688C374.738 166.643 380.421 229.858 376.409 243.083H388.425C391.954 229.68 399.578 217.12 406.13 210.323Z" fill="#563D3B"/>
<path d="M401.921 265.023C398.998 242.313 406.262 219.49 413.377 205.185C411.394 205.665 408.855 207.496 406.13 210.323C399.578 217.12 391.954 229.68 388.425 243.083C388.136 244.18 387.874 245.283 387.643 246.389C384.989 259.083 386.327 272.166 395.945 281.553L401.921 265.023Z" fill="#5D4F54"/>
<path d="M117.636 98.8188C117.035 103.928 116.735 114.027 120.341 113.546C126.886 103.326 138.129 94.4548 152.5 87.5705C202.126 63.7985 289.063 63.7128 348.741 113.546C356.85 120.316 364.455 128.009 371.395 136.688C386.89 156.067 399.069 180.368 406.13 210.323C408.855 207.496 411.394 205.665 413.377 205.185C414.601 202.724 415.821 200.514 416.984 198.601C418.358 196.67 419.763 194.927 421.191 193.36C416.984 113.546 252.583 -21.1004 120.843 93.7095C119.759 95.3863 118.69 97.0894 117.636 98.8188Z" fill="#F18730"/>
<path d="M414.579 362.1C421.892 356.49 435.617 341.963 432.011 328.739L430.208 323.029C360.48 395.16 221.727 387.046 167.528 371.718C166.33 372.683 165.018 373.751 163.62 374.9C163.62 377.445 174.841 385.861 180.451 389.751C206.095 404.365 308.088 415.235 392.339 374.41C399.918 370.737 407.355 366.645 414.579 362.1Z" fill="#62595F"/>
<path d="M321.108 716.748L315.999 711.038L283.239 617.266H273.02M321.108 716.748L322.911 779.262C336.436 808.416 402.617 821.039 429.306 792.186C432.011 782.067 431.41 757.322 407.366 739.289L404.06 711.038V704.726M321.108 716.748C340.343 722.859 383.863 729.01 404.06 704.726M404.06 704.726L395.644 593.223M395.644 593.223C395.644 586.009 425.399 589.315 439.525 561.364M395.644 593.223C377.611 609.813 371.3 600.937 370.398 594.425M439.525 561.364L443.732 559.862H447.339L462.366 547.239V540.326C462.891 539.651 463.672 538.749 464.531 537.921M439.525 561.364C443.408 533.6 416.311 511.606 395.344 506.4M414.579 362.1C440.066 366.669 448.441 379.432 449.443 385.243C557.4 478.052 496.93 504.861 468.678 535.818C467.625 535.366 465.968 536.539 464.531 537.921M414.579 362.1C421.892 356.49 435.617 341.963 432.011 328.739L430.208 323.029M414.579 362.1C407.355 366.645 399.918 370.737 392.339 374.41M430.208 323.029L444.934 301.99M430.208 323.029C360.48 395.16 221.727 387.046 167.528 371.718M444.934 301.99C472.886 309.203 510.274 230.039 474.689 192.29M444.934 301.99C416.382 286.061 425.098 190.486 474.689 192.29M444.934 301.99C432.912 309.684 418.887 300.788 413.377 295.378C406.747 285.84 403.261 275.443 401.921 265.023M474.689 192.29C464.606 183.233 440.74 171.898 421.191 193.36M474.689 192.29C491.058 22.9477 230.698 -76.2541 120.843 93.7095M120.341 113.546C116.735 114.027 117.035 103.928 117.636 98.8188C118.69 97.0894 119.759 95.3863 120.843 93.7095M120.341 113.546C88.1825 151.715 62.2149 268.389 145.888 338.357M120.341 113.546C126.886 103.326 138.129 94.4548 152.5 87.5705M145.888 338.357C142.081 343.766 140.598 357.652 165.123 369.914L167.528 371.718M145.888 338.357C216.25 379.025 278.901 372.726 324.114 351.147M167.528 371.718C166.33 372.683 165.018 373.751 163.62 374.9M112.527 403.576L123.046 414.095C126.112 406.869 149.355 386.628 163.62 374.9M112.527 403.576C113.93 398.767 113.669 387.647 101.407 381.636M112.527 403.576C100.986 435.554 71.6523 441.345 58.4282 440.243M101.407 381.636C110.423 366.007 111.205 324.05 74.6578 326.936M101.407 381.636C92.0896 395.962 66.7833 422.51 40.0946 414.095M74.6578 326.936L32.2804 280.351C29.0745 278.347 21.5207 275.542 16.9523 280.351C14.7483 282.054 11.2419 287.383 14.8485 295.078L43.4006 331.143M74.6578 326.936L56.6249 342.564M43.4006 331.143C36.5882 329.04 23.0835 329.34 23.5644 347.373M43.4006 331.143L56.6249 342.564M23.5644 347.373C7.53508 352.883 -11.9004 378.33 40.0946 414.095M23.5644 347.373C31.579 351.38 48.6904 363.483 53.0183 379.832C52.8179 385.042 49.2915 394.619 36.7886 391.253C32.3806 388.148 22.9032 380.313 20.2584 373.821M40.0946 414.095C38.3915 421.008 39.6739 435.915 58.4282 440.243M58.4282 440.243C69.0476 473.303 105.735 525.839 167.528 471.5M167.528 471.5C166.025 495.845 164.462 546.637 170.233 555.053C176.845 605.244 172.697 707.551 183.757 704.426M167.528 471.5C169.631 447.456 175.162 397.445 180.451 389.751M183.757 704.426V720.956C167.628 721.757 134.407 731.475 130.56 763.935C128.857 769.946 130.199 782.869 149.194 786.476C170.834 791.685 244.468 790.383 263.703 763.935V702.322M183.757 704.426C217.719 723.961 255.288 711.038 263.703 702.322M263.703 702.322C268.212 702.322 269.173 667.037 273.02 617.266M273.02 617.266C265.206 616.765 244.108 612.878 222.228 601.337M180.451 389.751C174.841 385.861 163.62 377.445 163.62 374.9M180.451 389.751C206.095 404.365 308.088 415.235 392.339 374.41M56.6249 342.564C50.7141 350.178 44.8433 365.466 68.6468 365.707M68.6468 365.707C72.3536 364.605 80.9694 360.657 85.7782 353.685M68.6468 365.707C66.2424 380.373 57.8271 383.038 53.9199 382.537M344.251 557.758C334.633 562.566 334.232 552.749 335.234 547.239C337.879 529.687 361.182 519.488 372.502 516.582V514.779C374.205 505.736 383.854 503.547 395.344 506.4M344.251 557.758C349.26 552.448 361.322 541.528 369.497 540.326M344.251 557.758C341.045 566.874 338.66 583.785 354.77 578.496M354.77 578.496C359.078 571.683 369.857 557.698 378.513 556.255M354.77 578.496C352.666 585.909 352.846 599.474 370.398 594.425M370.398 594.425C372.602 588.314 379.655 575.37 390.235 572.485M464.531 537.921C460.908 523.604 445.977 494.229 414.88 488.189M395.344 506.4C394.863 503.062 406.364 492.562 412.175 487.73C413.09 487.863 413.991 488.017 414.88 488.189M395.344 506.4C395.444 491.36 396.306 460.44 398.951 457.074M414.88 488.189C417.269 484.778 421.171 479.525 425.142 474.806M435.918 464.587C433.256 465.797 429.164 470.027 425.142 474.806M398.951 457.074C407.295 462.484 424.216 473.604 425.142 474.806M398.951 457.074C380.918 447.648 354.349 417.919 392.339 374.41M413.377 205.185C414.601 202.724 415.821 200.514 416.984 198.601C418.358 196.67 419.763 194.927 421.191 193.36M413.377 205.185C406.262 219.49 398.998 242.313 401.921 265.023M413.377 205.185C411.394 205.665 408.855 207.496 406.13 210.323M395.945 281.553L401.921 265.023M395.945 281.553C386.327 272.166 384.989 259.083 387.643 246.389C387.874 245.283 388.136 244.18 388.425 243.083M395.945 281.553C389.126 302.567 363.103 332.539 324.114 351.147M406.13 210.323C399.069 180.368 386.89 156.067 371.395 136.688M406.13 210.323C399.578 217.12 391.954 229.68 388.425 243.083M421.191 193.36C416.984 113.546 252.583 -21.1004 120.843 93.7095M152.5 87.5705C202.126 63.7985 289.063 63.7128 348.741 113.546M152.5 87.5705C156.942 93.2852 161.993 97.9376 167.528 101.698M348.741 113.546C356.85 120.316 364.455 128.009 371.395 136.688M348.741 113.546C316.13 92.7809 220.044 137.381 167.528 101.698M371.395 136.688C374.738 166.643 380.421 229.858 376.409 243.083H388.425M167.528 101.698C159.112 113.362 144.806 146.306 154.905 184.776C154.905 210.263 151.699 229.858 150.096 236.47C126.653 283.957 161.216 385.243 324.114 351.147M205.096 421.008C200.388 421.509 190.73 425.336 189.768 436.636L187.965 495.243C187.965 499.752 191.391 508.768 205.096 508.768L301.873 509.97C306.582 509.069 316.179 504.861 316.901 495.243L319.606 435.134C319.305 430.425 315.638 421.008 303.376 421.008H205.096Z" stroke="#252525" stroke-width="11"/>
</svg>
