<svg width="49" height="49" viewBox="0 0 49 49" fill="none" xmlns="http://www.w3.org/2000/svg">
<circle cx="24.5001" cy="24.5" r="24" fill="white"/>
<g clip-path="url(#clip0_52_191)">
<path d="M24.5001 0.5C11.184 0.5 0.500122 11.1839 0.500122 24.5C0.500122 37.8161 11.184 48.5 24.5001 48.5C37.8162 48.5 48.5001 37.8161 48.5001 24.5C48.5001 11.1839 37.8162 0.5 24.5001 0.5ZM30.8485 15.1323H28.4485C27.3646 15.1323 26.6679 15.6742 26.6679 16.6806C26.5904 17.5323 26.6679 18.4613 26.6679 19.1581C26.6679 19.4677 26.7453 19.4677 26.9775 19.4677H30.5388C30.8485 19.4677 31.0033 19.5452 31.0033 19.9323C30.9259 21.3258 30.6937 22.7968 30.6937 24.1903C30.6937 24.5 30.6163 24.5 30.2292 24.5H27.3646C26.7453 24.5 26.8227 24.4226 26.8227 25.0419V38.2806C26.8227 38.7452 26.7453 38.8226 26.2808 38.8226H21.4033C20.9388 38.8226 20.8614 38.7452 20.8614 38.2806V24.8871C20.8614 24.5774 20.784 24.3452 20.3969 24.4226H18.3066C17.8421 24.6548 17.8421 24.5 17.8421 24.1903V19.9323C17.8421 19.6226 17.9195 19.6226 18.1517 19.6226H20.3195C20.784 19.6226 20.8614 19.5452 20.8614 19.0806V15.829C20.8614 14.5129 21.1711 13.3516 21.9453 12.2677C22.9517 10.9516 24.3453 10.3323 25.8937 10.1774C27.5195 10.1 29.1453 10.1774 30.7711 10.1C31.0033 10.1 31.0808 10.1774 31.0808 10.4097V14.6677C31.1582 14.9774 31.0808 15.1323 30.8485 15.1323Z" fill="#0475F7"/>
</g>
<defs>
<clipPath id="clip0_52_191">
<rect width="48" height="48" fill="white" transform="translate(0.500122 0.5)"/>
</clipPath>
</defs>
</svg>
