<svg width="49" height="49" viewBox="0 0 49 49" fill="none" xmlns="http://www.w3.org/2000/svg">
<circle cx="24.5001" cy="24.5" r="24" fill="white"/>
<path d="M40.8426 21.2359H39.5001V21.1667H24.5001V27.8334H33.9193C32.5451 31.7142 28.8526 34.5 24.5001 34.5C18.9776 34.5 14.5001 30.0225 14.5001 24.5C14.5001 18.9775 18.9776 14.5 24.5001 14.5C27.0493 14.5 29.3684 15.4617 31.1343 17.0325L35.8484 12.3184C32.8718 9.54421 28.8901 7.83337 24.5001 7.83337C15.2959 7.83337 7.83344 15.2959 7.83344 24.5C7.83344 33.7042 15.2959 41.1667 24.5001 41.1667C33.7043 41.1667 41.1668 33.7042 41.1668 24.5C41.1668 23.3825 41.0518 22.2917 40.8426 21.2359Z" fill="#FFC107"/>
<path d="M9.75513 16.7425L15.231 20.7584C16.7126 17.09 20.301 14.5 24.5001 14.5C27.0493 14.5 29.3685 15.4617 31.1343 17.0325L35.8485 12.3184C32.8718 9.54421 28.8901 7.83337 24.5001 7.83337C18.0985 7.83337 12.5468 11.4475 9.75513 16.7425Z" fill="#FF3D00"/>
<path d="M24.5001 41.1666C28.8051 41.1666 32.7168 39.5191 35.6743 36.84L30.5159 32.475C28.7867 33.7908 26.6731 34.5023 24.5001 34.5C20.1651 34.5 16.4843 31.7358 15.0976 27.8783L9.6626 32.0658C12.4209 37.4633 18.0226 41.1666 24.5001 41.1666Z" fill="#4CAF50"/>
<path d="M40.8426 21.2358H39.5001V21.1666H24.5001V27.8333H33.9193C33.262 29.6803 32.0779 31.2943 30.5135 32.4758L30.516 32.4741L35.6743 36.8391C35.3093 37.1708 41.1668 32.8333 41.1668 24.5C41.1668 23.3825 41.0518 22.2916 40.8426 21.2358Z" fill="#1976D2"/>
</svg>
