<svg width="39" height="38" viewBox="0 0 39 38" fill="none" xmlns="http://www.w3.org/2000/svg">
<path d="M30.261 5.09352C30.4525 5.24179 30.6073 5.43028 30.7136 5.64494C30.82 5.85961 30.8752 6.0949 30.8752 6.33327V24.806C30.8752 24.8694 30.8714 24.9332 30.8639 24.9976C30.8714 25.1084 30.8752 25.2203 30.8752 25.3333C30.8747 26.3415 30.5449 27.3234 29.9337 28.1368C29.3224 28.9503 28.4613 29.5532 27.4751 29.8582C26.4888 30.1632 25.4286 30.1545 24.4477 29.8335C23.4668 29.5124 22.6163 28.8955 22.0191 28.0722C21.4219 27.2488 21.1091 26.2617 21.1259 25.2536C21.1427 24.2455 21.4883 23.2688 22.1126 22.4648C22.7369 21.6608 23.6076 21.0712 24.5986 20.7813C25.5897 20.4915 26.6497 20.5164 27.6252 20.8524V14.6616L14.6252 17.6177V28.5047C14.624 29.5128 14.2937 30.4943 13.682 31.3073C13.0703 32.1203 12.209 32.7227 11.2228 33.0272C10.2365 33.3317 9.17637 33.3225 8.19578 33.0011C7.21518 32.6796 6.36497 32.0626 5.76815 31.2391C5.17133 30.4157 4.85884 29.4286 4.87591 28.4207C4.89297 27.4128 5.2387 26.4362 5.86307 25.6324C6.48744 24.8286 7.35808 24.2392 8.34902 23.9495C9.33996 23.6597 10.3998 23.6847 11.3752 24.0207V10.0272C11.3752 9.66971 11.4993 9.32275 11.7274 9.04274C11.9555 8.76273 12.2741 8.56617 12.6314 8.48502L28.8814 4.7911C29.1175 4.73762 29.363 4.73631 29.5997 4.78727C29.8365 4.83823 30.0585 4.94017 30.2496 5.0856L30.261 5.09352Z" fill="#FF7B00"/>
</svg>
