<svg width="41" height="40" viewBox="0 0 41 40" fill="none" xmlns="http://www.w3.org/2000/svg">
<path d="M18.0316 2.43741C18.2593 1.97632 18.6114 1.58811 19.0481 1.31666C19.4849 1.04522 19.9889 0.901367 20.5031 0.901367C21.0173 0.901367 21.5213 1.04522 21.958 1.31666C22.3948 1.58811 22.7469 1.97632 22.9745 2.43741L27.6326 11.876L38.0481 13.3889C38.5573 13.4623 39.0358 13.6768 39.4294 14.0081C39.823 14.3393 40.1161 14.7741 40.2754 15.2633C40.4347 15.7524 40.454 16.2764 40.331 16.7759C40.208 17.2755 39.9476 17.7306 39.5794 18.0898L32.0395 25.4398L33.8188 35.8125C33.9053 36.3193 33.8483 36.8402 33.6543 37.3163C33.4603 37.7924 33.137 38.2047 32.721 38.5067C32.3049 38.8087 31.8127 38.9883 31.2999 39.0253C30.7871 39.0622 30.2743 38.955 29.8192 38.7158L20.5031 33.8219L11.187 38.7219C10.7314 38.9617 10.2178 39.0691 9.70436 39.032C9.19091 38.9948 8.69811 38.8147 8.2818 38.5118C7.86549 38.209 7.54231 37.7956 7.34888 37.3186C7.15544 36.8415 7.09948 36.3198 7.18733 35.8125L8.96358 25.4398L1.42983 18.0929C1.06165 17.7339 0.80126 17.279 0.678104 16.7797C0.554947 16.2804 0.573937 15.7566 0.732926 15.2675C0.891915 14.7784 1.18456 14.3436 1.57778 14.0121C1.97099 13.6807 2.44909 13.4659 2.95802 13.392L13.3705 11.8791L18.0316 2.43741Z" fill="url(#paint0_linear_156_71)"/>
<defs>
<linearGradient id="paint0_linear_156_71" x1="40.4063" y1="39.8918" x2="-0.554668" y2="1.26754" gradientUnits="userSpaceOnUse">
<stop stop-color="#FF6F47"/>
<stop offset="1" stop-color="#FFCD0F"/>
</linearGradient>
</defs>
</svg>
