<svg width="42" height="497" viewBox="0 0 42 497" fill="none" xmlns="http://www.w3.org/2000/svg">
<path d="M17 387.5C17.2761 387.5 17.5 387.276 17.5 387C17.5 386.724 17.2761 386.5 17 386.5V387.5ZM0 387V387.5H17V387V386.5H0V387Z" fill="white"/>
<path d="M17 405.5C17.2761 405.5 17.5 405.276 17.5 405C17.5 404.724 17.2761 404.5 17 404.5V405.5ZM0 405V405.5H17V405V404.5H0V405Z" fill="white"/>
<path d="M17 423.5C17.2761 423.5 17.5 423.276 17.5 423C17.5 422.724 17.2761 422.5 17 422.5V423.5ZM0 423V423.5H17V423V422.5H0V423Z" fill="white"/>
<path d="M17 441.5C17.2761 441.5 17.5 441.276 17.5 441C17.5 440.724 17.2761 440.5 17 440.5V441.5ZM0 441V441.5H17V441V440.5H0V441Z" fill="white"/>
<path d="M17 459.5C17.2761 459.5 17.5 459.276 17.5 459C17.5 458.724 17.2761 458.5 17 458.5V459.5ZM0 459V459.5H17V459V458.5H0V459Z" fill="white"/>
<path d="M28 477.5C28.2761 477.5 28.5 477.276 28.5 477C28.5 476.724 28.2761 476.5 28 476.5V477.5ZM0 477V477.5H28V477V476.5H0V477Z" fill="white"/>
<path d="M17 279.5C17.2761 279.5 17.5 279.276 17.5 279C17.5 278.724 17.2761 278.5 17 278.5V279.5ZM0 279V279.5H17V279V278.5H0V279Z" fill="white"/>
<path d="M17 297.5C17.2761 297.5 17.5 297.276 17.5 297C17.5 296.724 17.2761 296.5 17 296.5V297.5ZM0 297V297.5H17V297V296.5H0V297Z" fill="white"/>
<path d="M17 315.5C17.2761 315.5 17.5 315.276 17.5 315C17.5 314.724 17.2761 314.5 17 314.5V315.5ZM0 315V315.5H17V315V314.5H0V315Z" fill="white"/>
<path d="M17 333.5C17.2761 333.5 17.5 333.276 17.5 333C17.5 332.724 17.2761 332.5 17 332.5V333.5ZM0 333V333.5H17V333V332.5H0V333Z" fill="white"/>
<path d="M17 351.5C17.2761 351.5 17.5 351.276 17.5 351C17.5 350.724 17.2761 350.5 17 350.5V351.5ZM0 351V351.5H17V351V350.5H0V351Z" fill="white"/>
<path d="M28 369.5C28.2761 369.5 28.5 369.276 28.5 369C28.5 368.724 28.2761 368.5 28 368.5V369.5ZM0 369V369.5H28V369V368.5H0V369Z" fill="white"/>
<path d="M17 171.5C17.2761 171.5 17.5 171.276 17.5 171C17.5 170.724 17.2761 170.5 17 170.5V171.5ZM0 171V171.5H17V171V170.5H0V171Z" fill="white"/>
<path d="M17 189.5C17.2761 189.5 17.5 189.276 17.5 189C17.5 188.724 17.2761 188.5 17 188.5V189.5ZM0 189V189.5H17V189V188.5H0V189Z" fill="white"/>
<path d="M17 207.5C17.2761 207.5 17.5 207.276 17.5 207C17.5 206.724 17.2761 206.5 17 206.5V207.5ZM0 207V207.5H17V207V206.5H0V207Z" fill="white"/>
<path d="M17 225.5C17.2761 225.5 17.5 225.276 17.5 225C17.5 224.724 17.2761 224.5 17 224.5V225.5ZM0 225V225.5H17V225V224.5H0V225Z" fill="white"/>
<path d="M17 243.5C17.2761 243.5 17.5 243.276 17.5 243C17.5 242.724 17.2761 242.5 17 242.5V243.5ZM0 243V243.5H17V243V242.5H0V243Z" fill="white"/>
<path d="M28 261.5C28.2761 261.5 28.5 261.276 28.5 261C28.5 260.724 28.2761 260.5 28 260.5V261.5ZM0 261V261.5H28V261V260.5H0V261Z" fill="white"/>
<path d="M28 45.5C28.2761 45.5 28.5 45.2761 28.5 45C28.5 44.7239 28.2761 44.5 28 44.5V45.5ZM0 45V45.5H28V45V44.5H0V45Z" fill="white"/>
<path d="M17 63.5C17.2761 63.5 17.5 63.2761 17.5 63C17.5 62.7239 17.2761 62.5 17 62.5V63.5ZM0 63V63.5H17V63V62.5H0V63Z" fill="white"/>
<path d="M17 81.5C17.2761 81.5 17.5 81.2761 17.5 81C17.5 80.7239 17.2761 80.5 17 80.5V81.5ZM0 81V81.5H17V81V80.5H0V81Z" fill="white"/>
<path d="M17 99.5C17.2761 99.5 17.5 99.2761 17.5 99C17.5 98.7239 17.2761 98.5 17 98.5V99.5ZM0 99V99.5H17V99V98.5H0V99Z" fill="white"/>
<path d="M17 117.5C17.2761 117.5 17.5 117.276 17.5 117C17.5 116.724 17.2761 116.5 17 116.5V117.5ZM0 117V117.5H17V117V116.5H0V117Z" fill="white"/>
<path d="M17 135.5C17.2761 135.5 17.5 135.276 17.5 135C17.5 134.724 17.2761 134.5 17 134.5V135.5ZM0 135V135.5H17V135V134.5H0V135Z" fill="white"/>
<path d="M28 153.5C28.2761 153.5 28.5 153.276 28.5 153C28.5 152.724 28.2761 152.5 28 152.5V153.5ZM0 153V153.5H28V153V152.5H0V153Z" fill="white"/>
</svg>
