<svg width="39" height="38" viewBox="0 0 39 38" fill="none" xmlns="http://www.w3.org/2000/svg">
<path d="M32.9508 26.6783L29.0475 24.5122C28.9833 24.4769 28.9126 24.4541 28.8393 24.4451C28.766 24.4361 28.6916 24.4411 28.6203 24.4597C28.549 24.4783 28.4822 24.5103 28.4237 24.5537C28.3652 24.5971 28.3163 24.6512 28.2795 24.7128L27.5753 25.886C27.4196 26.1445 27.5116 26.4777 27.7806 26.6273L31.6839 28.7935C31.748 28.8287 31.8188 28.8515 31.8921 28.8605C31.9654 28.8696 32.0398 28.8646 32.1111 28.846C32.1824 28.8273 32.2492 28.7954 32.3077 28.752C32.3661 28.7085 32.4151 28.6544 32.4518 28.5928L33.156 27.4196C33.3117 27.1612 33.2162 26.828 32.9508 26.6783ZM28.276 13.2872C28.3127 13.3488 28.3617 13.4029 28.4202 13.4463C28.4786 13.4897 28.5454 13.5217 28.6167 13.5403C28.688 13.5589 28.7625 13.5639 28.8358 13.5549C28.9091 13.5459 28.9798 13.5231 29.0439 13.4878L32.9472 11.3217C33.2162 11.172 33.3082 10.8388 33.1525 10.5804L32.4518 9.41058C32.4151 9.34895 32.3661 9.29487 32.3077 9.25144C32.2492 9.208 32.1824 9.17605 32.1111 9.15742C32.0398 9.13879 31.9654 9.13384 31.8921 9.14285C31.8188 9.15187 31.748 9.17467 31.6839 9.20995L27.7806 11.3761C27.6513 11.4485 27.5572 11.5671 27.5187 11.706C27.4803 11.8449 27.5006 11.9928 27.5753 12.1174L28.276 13.2872ZM34.4335 17.7758H29.9039C29.5924 17.7758 29.3377 18.0207 29.3377 18.3199V19.6801C29.3377 19.9793 29.5924 20.2242 29.9039 20.2242H34.4335C34.745 20.2242 34.9998 19.9793 34.9998 19.6801V18.3199C34.9998 18.0207 34.745 17.7758 34.4335 17.7758ZM23.5305 5.5C23.3217 5.5 23.1093 5.55441 22.9147 5.68023L10.3696 13.5592H4.56597C4.25455 13.5592 3.99976 13.804 3.99976 14.1033V23.8967C3.99976 24.196 4.25455 24.4408 4.56597 24.4408H10.3696L22.9147 32.3198C23.1093 32.4422 23.3252 32.5 23.5305 32.5C24.1214 32.5 24.6664 32.0477 24.6664 31.4084V6.59156C24.6664 5.95227 24.1214 5.5 23.5305 5.5Z" fill="#FF7B00"/>
</svg>
